<svg width="310" height="177" viewBox="0 0 310 177" fill="none" xmlns="http://www.w3.org/2000/svg">
<path opacity="0.1" d="M186.347 127.433C192.335 127.092 199.765 123.03 205.542 121.234C212.379 119.113 219.243 117.073 226.134 115.113C250.125 108.287 274.373 102.47 298.878 97.6632C301.165 97.2135 303.455 96.7745 305.749 96.3464C302.176 88.6246 296.639 81.9754 289.692 77.0625C289.87 75.3721 289.961 73.6736 289.963 71.9739C289.963 45.1114 268.496 23.3347 242.004 23.3347C233.848 23.326 225.829 25.4311 218.729 29.4447C199.979 17.1108 175.506 9.646 148.73 9.646C110.683 9.646 77.2821 24.7193 58.3558 47.4172L147.305 62.4444L201.859 71.6569C139.667 73.513 77.2821 75.3582 15.2684 71.0012C7.08234 78.922 1.9011 89.4399 0.610221 100.757C-0.680661 112.075 1.99894 123.489 8.19108 133.05V133.05C8.19108 134.023 8.23173 134.987 8.30488 135.944C9.88456 136.396 11.41 136.835 12.7784 137.123C34.7456 141.763 56.8538 145.647 79.1029 148.774C62.7074 158.883 42.7406 160.314 23.8279 164.595C32.9862 172.154 45.4231 176.788 59.128 176.788H263.19C285.287 176.788 303.197 161.406 303.197 142.428C306.513 136.96 308.722 130.894 309.7 124.575C268.813 128.522 227.416 125.095 186.347 127.433Z" fill="#40CA6A"/>
<path opacity="0.2" d="M309.979 116.492C310.001 108.67 308.141 100.959 304.557 94.0066C300.973 87.0546 295.77 81.0666 289.386 76.5476C289.563 74.858 289.653 73.1605 289.657 71.4618C289.657 44.5992 268.178 22.8306 241.698 22.8306C233.541 22.8219 225.522 24.926 218.42 28.938C199.67 16.5986 175.195 9.1311 148.419 9.1311C104.865 9.1311 67.3759 28.8973 50.7501 57.242C49.8261 57.1878 48.8968 57.158 47.9592 57.158C21.476 57.158 9.36463e-05 78.9347 9.36463e-05 105.797C-0.0184689 115.286 2.72294 124.575 7.89032 132.532C7.89032 156.702 30.7021 176.295 58.83 176.295H262.898C284.991 176.295 302.901 160.91 302.901 141.932C307.548 134.261 309.997 125.46 309.979 116.492Z" fill="#74FFFF"/>
<path d="M253.154 86.6923C252.766 86.3949 252.313 86.1959 251.832 86.1124C251.325 85.9959 250.807 85.9228 250.293 85.8415L243.622 84.8796C242.948 84.7546 242.261 84.7182 241.579 84.7712C241.236 84.7993 240.903 84.8952 240.597 85.0534C240.292 85.2115 240.022 85.4288 239.801 85.6925C239.602 85.9378 239.493 86.2437 239.492 86.5595C239.529 86.8773 239.633 87.1838 239.796 87.4591C239.86 87.5877 239.916 87.7208 239.961 87.8574C240.025 88.1639 240.104 88.4668 240.199 88.7651C240.229 88.8297 240.267 88.8899 240.313 88.9439C240.314 88.9593 240.314 88.9747 240.313 88.99C240.24 89.3639 240.476 89.7541 240.37 90.1145C240.278 90.4234 239.977 90.6103 239.788 90.8677C239.661 91.0503 239.591 91.2661 239.586 91.4882C239.581 91.7103 239.642 91.9289 239.76 92.1168C239.964 92.4311 240.332 92.6452 240.438 93.0056C240.576 93.4797 240.202 93.9376 239.869 94.3034C239.256 94.9768 238.689 95.6911 238.173 96.4413C238.028 96.6258 237.934 96.8455 237.902 97.078C237.872 97.5495 238.324 97.964 238.246 98.4328C238.184 98.8013 237.823 99.0262 237.512 99.2457C236.36 100.004 235.436 101.224 235.344 102.603C235.048 100.409 234.139 98.3422 232.721 96.6418C232.334 96.1757 231.908 95.707 231.748 95.1163C231.689 94.8806 231.678 94.6286 231.597 94.401C231.326 93.683 230.464 93.3741 230.087 92.7129C229.816 92.2469 229.816 91.6481 229.48 91.2389C229.144 90.8298 228.616 90.7377 228.326 90.3421C228.181 90.0741 228.058 89.795 227.958 89.5075C227.836 89.2731 227.665 89.0678 227.456 88.906C227.416 88.874 227.375 88.8442 227.332 88.8166C227.377 88.7763 227.413 88.7271 227.438 88.672C227.462 88.6169 227.475 88.5572 227.475 88.4969C227.475 88.1798 227.161 87.9712 226.887 87.814C226.535 87.6135 226.191 87.3968 225.855 87.1719C226.221 87.0012 226.539 86.7413 226.779 86.4159C227.08 85.9306 227.204 85.3565 227.131 84.7902C227.113 84.3331 226.942 83.8954 226.646 83.5465C226.476 83.365 226.261 83.2349 226.083 83.0642C225.619 82.6117 225.462 81.9424 225.27 81.3247C225.015 80.5118 224.617 79.6583 223.874 79.2275C223.517 79.0188 223.099 78.9213 222.75 78.7018C222.4 78.4823 222.108 78.0678 222.23 77.6695C222.311 77.3985 222.563 77.2116 222.734 76.9812C222.937 76.6834 223.016 76.3173 222.951 75.9622C222.887 75.6071 222.685 75.2918 222.39 75.0845C222.189 74.9572 221.942 74.8461 221.902 74.6131C221.745 74.5723 221.603 74.4882 221.492 74.3703C221.38 74.2524 221.305 74.1055 221.273 73.9465C221.212 73.6279 221.212 73.3006 221.273 72.9819C221.344 72.478 221.413 71.9758 221.482 71.4754C221.601 71.5251 221.729 71.5506 221.858 71.5506C221.988 71.5506 222.116 71.5251 222.235 71.4754C222.47 71.856 222.742 72.2118 223.048 72.5376C223.873 73.5119 224.516 74.6272 224.945 75.8297C225.099 76.2632 225.256 76.7482 225.657 76.9785C225.795 77.0571 225.953 77.0977 226.088 77.1817C226.255 77.2982 226.399 77.4453 226.511 77.6153C226.836 78.0461 227.161 78.4742 227.483 78.905L227.5 78.9701C227.509 79.0082 227.523 79.0448 227.543 79.0784C227.603 79.146 227.686 79.1885 227.776 79.1977C228.773 79.428 229.892 79.6393 230.757 79.0947C231.537 78.607 231.878 77.6424 232.54 76.9975C233.008 76.5396 233.672 76.1846 233.805 75.5398C233.647 75.4909 233.491 75.434 233.339 75.369C233.474 75.2336 233.61 75.0764 233.794 74.8976C234.062 74.6355 234.303 74.3478 234.515 74.0387C234.744 73.6573 234.925 73.2497 235.057 72.8248C235.579 71.3363 236.103 69.847 236.628 68.3567C236.878 67.6522 237.127 66.9423 237.441 66.2568C237.766 65.5144 238.151 64.8018 238.506 64.0729C239.422 62.1773 240.129 60.1876 240.614 58.139C240.7 57.8595 240.729 57.5655 240.698 57.2746C240.622 56.8059 240.267 56.4374 239.928 56.1041C239.588 55.7354 239.2 55.4137 238.774 55.1476C238.561 55.0148 238.323 54.9257 238.074 54.8857C237.826 54.8457 237.572 54.8555 237.327 54.9146C236.634 55.1178 236.197 55.8277 236.038 56.5403C235.878 57.253 235.937 57.9872 235.87 58.708C235.772 59.7512 235.414 60.7591 235.328 61.805C235.282 62.4092 235.328 63.0216 235.254 63.6258C235.121 64.4166 234.846 65.1767 234.442 65.8693C233.563 67.5213 232.373 68.9878 230.938 70.1884C230.773 70.3266 230.602 70.4593 230.44 70.6084C230.44 70.4918 230.459 70.3726 230.475 70.2561C230.357 70.2868 230.242 70.3276 230.131 70.3781C230.144 70.2412 230.131 70.103 230.09 69.9716C229.873 69.324 228.909 69.1587 228.735 68.5003C228.706 68.3375 228.691 68.1726 228.689 68.0072C228.632 67.4301 228.239 66.9423 228.104 66.3815C227.979 65.8639 228.074 65.2976 227.833 64.818C227.628 64.5182 227.385 64.2451 227.112 64.0052C226.787 63.6333 226.552 63.1908 226.427 62.7127C226.392 62.5799 226.359 62.4418 226.321 62.309C226.362 62.0083 226.329 61.7022 226.224 61.4175C225.977 60.8052 225.34 60.4123 225.11 59.7918C224.931 59.3095 225.01 58.708 224.671 58.3341C224.491 58.1554 224.271 58.0225 224.029 57.9466C222.789 57.4636 221.487 57.1563 220.162 57.0335C219.42 56.9657 218.602 56.9278 218.07 56.4049C217.45 55.7979 217.42 54.706 216.694 54.2372C216.055 53.8227 215.15 54.1288 214.654 54.7114C214.579 54.7971 214.51 54.8876 214.448 54.9823C214.357 54.6192 214.338 54.2419 214.391 53.8714C214.391 53.7793 214.41 53.6845 214.418 53.6005C215.641 53.2007 216.683 52.3785 217.355 51.2811C217.355 51.2811 217.355 51.2811 217.355 51.2974L217.388 51.3813C217.466 51.5791 217.591 51.7688 217.775 51.7905C217.898 51.789 218.016 51.746 218.111 51.6686C218.275 51.555 218.425 51.4242 218.561 51.2784C218.63 51.2025 218.695 51.1239 218.756 51.0427C218.881 50.8734 218.988 50.6919 219.076 50.5007C219.21 50.2132 219.302 49.9073 219.347 49.593C219.395 49.2787 219.401 48.9563 219.455 48.642C219.506 48.3987 219.572 48.1589 219.653 47.9239C219.68 47.8454 219.707 47.7668 219.731 47.6882C219.756 47.6096 219.791 47.504 219.818 47.4173C219.988 46.86 220.079 46.2818 220.089 45.6994C220.089 45.6019 220.089 45.5043 220.089 45.4068C220.079 45.0267 219.994 44.6523 219.837 44.3057C219.681 43.9591 219.457 43.6472 219.179 43.3882C218.713 43.0061 218.095 42.8462 217.753 42.3287C217.531 41.9819 217.483 41.5348 217.352 41.1284C217.212 40.642 216.938 40.2047 216.561 39.8661C216.185 39.5275 215.721 39.3012 215.223 39.2127C214.622 39.1469 214.02 39.3126 213.537 39.6761V39.6761L213.499 39.7059C213.231 39.911 213.003 40.1647 212.827 40.4537C212.469 40.3551 212.142 40.1688 211.874 39.9118C211.603 39.6598 211.394 39.3428 211.12 39.0989C210.865 38.8647 210.551 38.7034 210.211 38.6319C209.872 38.5605 209.52 38.5814 209.191 38.6925C208.853 38.828 208.551 39.0419 208.312 39.3165C208.072 39.5911 207.901 39.9186 207.812 40.2722C207.663 40.8303 207.69 41.4725 207.379 41.9385C207.137 42.3016 206.742 42.4805 206.465 42.811C206.294 43.0203 206.176 43.2689 206.124 43.5345V43.5345C206.091 43.683 206.076 43.8349 206.078 43.987V43.987C206.078 44.0547 206.078 44.1224 206.094 44.1875C206.094 44.1875 206.094 44.2092 206.094 44.22C206.104 44.2942 206.119 44.3676 206.14 44.4395V44.4395C206.217 44.7141 206.355 44.9679 206.544 45.1819C206.723 45.3868 206.946 45.5481 207.197 45.6533C207.3 45.6933 207.405 45.7268 207.511 45.7536L207.834 45.8268L207.948 45.8539C207.558 46.5844 207.342 47.3946 207.316 48.222C207.29 49.0493 207.454 49.8716 207.796 50.6254C207.796 50.7012 207.777 50.7771 207.769 50.853C207.725 51.9199 207.772 52.9887 207.91 54.0475C207.948 54.4675 207.969 54.9309 207.712 55.2641C207.595 55.3952 207.463 55.5125 207.319 55.6137C207.465 55.424 207.614 55.237 207.766 55.0501C207.384 54.6653 206.78 54.6166 206.238 54.6545C205.189 54.7328 204.171 55.0438 203.257 55.5649C202.65 55.9144 202.027 56.3778 201.334 56.2965C200.924 56.2504 200.521 56.0255 200.122 56.1339C199.899 56.2255 199.689 56.3497 199.502 56.5024C199.354 56.6087 199.175 56.6639 198.992 56.6596C198.567 56.1366 197.909 55.7817 197.399 55.3563C196.82 54.8402 196.289 54.2715 195.814 53.6574C194.936 52.5979 194.061 51.5358 193.199 50.4655C192.473 49.5659 191.728 48.5932 191.601 47.4416C191.588 47.3274 191.581 47.2125 191.582 47.0975C191.599 46.5504 191.668 46.0061 191.788 45.4718C191.82 45.3428 191.82 45.2079 191.788 45.0789C191.706 44.808 191.395 44.7077 191.127 44.6481C191.162 44.4395 191.186 44.2254 191.2 44.0222C191.352 41.692 191.186 39.3238 191.679 37.0424C191.866 36.1645 192.173 35.2757 192.804 34.639C193.793 33.6392 195.448 33.398 196.207 32.2139C196.841 31.2277 196.589 29.8322 195.793 28.9625C194.996 28.0927 193.768 27.7378 192.601 27.7811C192.273 27.7699 191.949 27.8567 191.671 28.0304C191.411 28.2612 191.217 28.5566 191.108 28.8866L189.945 31.7127C189.608 32.4484 189.324 33.2072 189.094 33.9833C188.769 35.1701 188.696 36.4219 188.439 37.6195C188.439 38.5408 187.845 39.6896 187.52 40.5377C187.157 41.4915 186.764 42.4344 186.436 43.4071C186.355 43.651 186.071 44.3744 185.894 45.0329C185.828 45.0716 185.766 45.118 185.71 45.171C185.569 45.3524 185.44 45.5434 185.325 45.7428C185.079 46.0679 184.678 46.2413 184.407 46.5556C184.136 46.8699 184.079 47.4471 184.456 47.6042C184.532 47.6299 184.611 47.6472 184.691 47.6557C184.741 47.6599 184.79 47.668 184.838 47.6801C185.244 47.7939 185.404 48.306 185.344 48.7287C185.285 49.1514 185.074 49.5416 185.038 49.9643C184.965 50.7121 185.404 51.4084 185.827 52.0371C186.264 52.7185 186.748 53.3694 187.274 53.9852C187.656 54.4133 188.087 54.7981 188.471 55.21C189.937 56.7165 191.102 58.4777 192.419 60.1143C192.893 60.7319 193.432 61.2969 194.026 61.7996C194.414 62.1032 194.82 62.3828 195.242 62.6368L197.508 64.0729C197.765 64.2612 198.055 64.3982 198.364 64.4766C198.465 64.4902 198.567 64.4902 198.667 64.4766C198.681 64.5444 198.692 64.6094 198.708 64.6771C198.884 65.387 199.272 66.0319 199.315 66.7554C199.358 67.4788 199.293 68.2185 199.345 68.9501C199.394 69.6248 199.543 70.3049 199.58 70.9687C199.656 72.2476 199.342 73.5103 199.039 74.7621C198.581 76.5938 198.304 78.4634 197.413 80.1243C197.164 80.5822 196.871 81.0483 196.871 81.5712C196.871 81.6335 196.871 81.6986 196.887 81.7609L196.481 81.9912C196.362 82.0589 196.242 82.1267 196.134 82.1971C195.619 82.5331 195.069 82.9043 194.858 83.4842C194.687 83.9529 194.766 84.4894 194.56 84.9446C194.55 84.965 194.539 84.9849 194.527 85.0042C194.31 85.4269 193.88 85.7412 193.782 86.2046C193.709 86.5595 193.85 86.9362 193.782 87.2884C193.782 87.2884 193.782 87.2884 193.782 87.3019C193.72 87.4788 193.671 87.66 193.636 87.8439C193.633 87.9039 193.638 87.9641 193.652 88.0227C193.704 88.228 193.817 88.4124 193.977 88.551C194.075 88.6447 194.181 88.7291 194.294 88.803C194.41 88.8789 194.529 88.9494 194.652 89.0144L194.722 89.0523C194.825 89.1065 194.928 89.158 195.034 89.2068L195.104 89.2366C195.226 89.2908 195.351 89.3395 195.475 89.3829L195.562 89.41C195.66 89.4425 195.76 89.4723 195.86 89.4967L195.928 89.5184L195.99 89.5319L196.261 89.5888L196.362 89.6078C196.481 89.6276 196.603 89.6439 196.727 89.6565H196.836C196.928 89.6565 197.017 89.6701 197.107 89.6728H197.234C197.329 89.6728 197.421 89.6728 197.505 89.6728H197.602C197.73 89.6728 197.857 89.6538 197.985 89.6376H198.025C198.139 89.6213 198.253 89.6024 198.367 89.578L198.453 89.559C198.559 89.5346 198.665 89.5102 198.77 89.4777L198.827 89.4615C198.955 89.4235 199.082 89.3829 199.207 89.3341C199.638 89.1569 200.056 88.9495 200.458 88.7136C200.729 88.5646 201 88.4129 201.271 88.2747C201.472 88.1734 201.678 88.083 201.889 88.0037C202.401 87.7848 202.959 87.6919 203.515 87.7328C203.789 87.7701 204.061 87.8253 204.328 87.898C204.328 87.9279 204.328 87.9577 204.328 87.9875C204.548 89.288 204.766 90.5886 204.981 91.8892C205.335 91.6338 205.711 91.4082 206.102 91.2145C206.029 91.4109 205.981 91.6158 205.959 91.8242C205.942 91.9855 205.942 92.1479 205.959 92.3092C205.983 92.5666 206.037 92.8511 205.883 93.0543C205.788 93.179 205.612 93.2494 205.56 93.3903C205.523 93.5344 205.514 93.6844 205.533 93.832C205.522 94.0004 205.451 94.1592 205.333 94.2796C205.214 94.3999 205.057 94.4738 204.888 94.4877C204.966 94.7058 204.968 94.9437 204.894 95.1629C204.819 95.3822 204.673 95.57 204.479 95.6962C204.366 95.7507 204.26 95.8199 204.165 95.9021C204.072 96.0218 204.01 96.1622 203.983 96.3112C203.625 97.653 202.889 98.8636 201.862 99.7984C201.477 100.101 201.125 100.445 200.813 100.823C200.621 101.115 200.462 101.429 200.339 101.757C199.617 103.524 198.883 105.292 198.139 107.06C197.727 108.049 197.326 109.054 197.196 110.119C196.871 113.04 194.27 115.517 194.757 118.416C194.856 119.14 195.148 119.824 195.603 120.396C196.145 121.049 196.958 121.423 197.77 121.727C199.86 122.54 202.062 122.984 204.257 123.431L207.704 124.138C208.38 124.294 209.066 124.403 209.758 124.464C210.589 124.52 211.443 124.442 212.253 124.653C212.754 124.783 213.234 125.024 213.751 125.051C214.196 125.076 214.743 124.981 215.006 125.344C215.269 125.707 215.066 126.187 215.315 126.509C215.716 127.021 216.694 126.509 217.13 126.992C217.249 127.177 217.341 127.379 217.401 127.59C217.467 127.721 217.56 127.837 217.672 127.932C217.699 128.085 217.71 128.24 217.705 128.395C217.648 129.024 217.517 129.645 217.315 130.243C216.989 131.343 216.665 132.444 216.342 133.546C216.218 133.935 216.128 134.334 216.071 134.738C216.05 134.935 216.05 135.132 216.071 135.329C216.128 135.928 216.472 136.545 217.044 136.741C217.487 136.858 217.959 136.8 218.36 136.578C218.748 136.376 219.112 136.13 219.444 135.846C220.044 135.392 220.571 134.85 221.008 134.237C222.362 132.21 221.923 129.468 222.875 127.227C223.506 125.732 224.736 124.518 225.145 122.941C225.241 122.641 225.252 122.32 225.178 122.014C225.007 121.472 224.43 121.163 223.891 120.968H223.866C223.423 120.81 222.971 120.681 222.511 120.581C222.398 120.556 222.281 120.537 222.165 120.518C221.907 120.309 221.702 120.041 221.566 119.738C221.545 119.577 221.502 119.419 221.438 119.269C221.395 119.205 221.337 119.151 221.27 119.114C221.202 119.076 221.126 119.055 221.048 119.053C220.777 119.025 220.414 119.123 220.119 119.101C219.515 119.058 219.114 118.465 218.572 118.191C218.03 117.917 217.442 117.985 216.865 118.026C216.658 118.054 216.448 118.041 216.247 117.988C216.006 117.877 215.786 117.726 215.597 117.541C215.263 117.281 214.874 117.103 214.46 117.019C214.045 116.936 213.617 116.95 213.21 117.061C212.95 117.166 212.676 117.228 212.397 117.245C211.868 117.215 211.494 116.744 211.104 116.386C210.037 115.408 208.517 115.151 207.221 114.509C207.023 114.435 206.858 114.293 206.755 114.108C206.606 113.739 206.942 113.371 207.246 113.119L209.473 111.268C211.912 109.241 214.96 107.716 216.093 104.743C216.211 104.345 216.394 103.969 216.634 103.63C216.722 103.526 216.823 103.435 216.935 103.359C217.428 103.04 218.025 102.923 218.602 103.034C219.304 103.191 219.97 103.482 220.563 103.89C221.533 104.477 222.477 105.109 223.395 105.787C224.304 106.436 225.168 107.146 225.982 107.911C227.405 109.266 228.589 110.872 229.914 112.333C231.239 113.793 232.754 115.156 234.593 115.855C236.433 116.554 238.658 116.525 240.237 115.351C242.061 113.996 242.646 111.574 243.107 109.352C244.123 108.371 244.429 106.878 244.925 105.559C245.236 104.722 245.635 103.933 245.971 103.099C246.372 102.118 246.686 101.104 247 100.094C247.357 99.0789 247.598 98.0273 247.721 96.9588C247.851 95.2707 247.399 93.4743 247.873 91.8892C248.499 91.751 249.068 91.3988 249.683 91.1929C250.599 90.8921 251.58 90.9409 252.55 90.9463H252.612C252.946 90.9819 253.283 90.9025 253.566 90.7214C253.891 90.4504 253.942 89.9871 253.959 89.5671C253.996 88.5294 253.931 87.3643 253.154 86.6923ZM213.895 40.4727C213.671 40.5281 213.439 40.5446 213.21 40.5214L213.895 40.4727Z" fill="url(#paint0_linear)"/>
<path d="M214.963 57.6132C214.635 57.8919 214.25 58.0962 213.836 58.212L211.915 58.9003C210.871 59.2742 209.782 59.6508 208.682 59.5153C208.067 59.4395 205.431 59.052 205.032 58.5724C204.425 57.83 206.552 56.738 207.279 56.1121C207.443 55.9938 207.596 55.8595 207.734 55.7111C208.005 55.3806 207.97 54.9172 207.932 54.4999C207.794 53.4429 207.747 52.3759 207.791 51.3108C207.812 51.0569 207.848 50.8044 207.899 50.5548C208.17 49.3084 209.33 49.7636 210.246 50.0942C211.348 50.4523 212.414 50.9141 213.429 51.4734C213.739 51.6328 214.007 51.8608 214.215 52.1399C214.616 52.7469 214.456 53.5435 214.391 54.3076C214.334 54.901 214.337 55.47 214.708 55.9008C214.895 56.0655 215.066 56.2469 215.22 56.4427C215.307 56.6399 215.329 56.8596 215.283 57.07C215.236 57.2804 215.124 57.4706 214.963 57.6132Z" fill="#BE6F72"/>
<path d="M188.425 38.0855C188.696 36.8852 188.756 35.6469 189.081 34.4574C189.31 33.684 189.595 32.9279 189.932 32.1949L191.127 29.4068C191.236 29.0776 191.43 28.7831 191.69 28.5533C191.969 28.3807 192.292 28.294 192.62 28.304C193.787 28.2606 195.015 28.6237 195.811 29.4827C196.608 30.3416 196.86 31.7316 196.226 32.7152C195.467 33.8992 193.812 34.1377 192.823 35.1348C192.191 35.7715 191.885 36.6576 191.698 37.5327C191.205 39.8088 191.371 42.1688 191.219 44.4936C191.17 45.217 191.029 46.0435 190.406 46.4174C190.029 46.6019 189.61 46.6833 189.192 46.6531L187.415 46.6829C187.116 46.6829 186.035 46.8699 185.838 46.645C185.491 46.2521 186.282 44.2958 186.426 43.8596C186.745 42.8922 187.138 41.9493 187.509 40.9983C187.832 40.1502 188.425 39.004 188.425 38.0855Z" fill="#BE6F72"/>
<path d="M225.126 123.209C224.717 124.775 223.487 125.994 222.856 127.487C221.905 129.723 222.333 132.457 220.989 134.478C220.553 135.092 220.026 135.635 219.425 136.09C219.093 136.373 218.729 136.617 218.341 136.819C217.94 137.04 217.468 137.099 217.025 136.981C216.453 136.786 216.109 136.169 216.052 135.573C216.032 135.377 216.032 135.18 216.052 134.985C216.109 134.581 216.199 134.183 216.323 133.795C216.648 132.699 216.972 131.6 217.296 130.5C217.498 129.904 217.629 129.285 217.686 128.658C217.721 127.975 217.287 127.086 217.472 126.449C217.556 126.162 217.87 125.908 218.014 125.666C218.217 125.319 218.374 124.947 218.48 124.558C218.702 123.802 218.854 122.995 219.32 122.358C219.624 121.98 219.979 121.647 220.376 121.369C220.669 121.112 221.013 120.919 221.384 120.803C221.745 120.739 222.115 120.757 222.468 120.854C222.928 120.952 223.38 121.081 223.823 121.239H223.847C224.389 121.434 224.964 121.735 225.134 122.282C225.217 122.586 225.214 122.907 225.126 123.209V123.209Z" fill="#3F3D56"/>
<path d="M253.956 89.8976C253.94 90.3176 253.888 90.7864 253.563 91.0492C253.28 91.2303 252.944 91.3097 252.609 91.2741H252.536C251.569 91.2741 250.585 91.2199 249.67 91.5207C248.973 91.751 248.334 92.1737 247.608 92.2577C246.608 92.3715 245.668 91.8241 244.782 91.3473C243.947 90.8978 243.091 90.4909 242.216 90.128C241.641 89.8922 240.468 89.7405 240.192 89.1119C240.097 88.8144 240.017 88.5124 239.953 88.2069C239.908 88.0703 239.852 87.9372 239.788 87.8086C239.625 87.534 239.522 87.2285 239.484 86.9117C239.485 86.5959 239.594 86.29 239.793 86.0446C240.014 85.783 240.285 85.5676 240.589 85.4109C240.894 85.2542 241.227 85.1592 241.568 85.1315C242.251 85.0785 242.938 85.1149 243.611 85.2399L250.282 86.1991C250.797 86.2723 251.314 86.3454 251.821 86.4701C252.302 86.5535 252.756 86.7525 253.143 87.0499C253.932 87.711 253.997 88.8734 253.956 89.8976Z" fill="#3F3D56"/>
<path d="M248.093 91.6317C247.28 93.3469 247.865 95.3763 247.719 97.273C247.596 98.3389 247.354 99.3877 246.998 100.4C246.684 101.408 246.369 102.418 245.968 103.397C245.632 104.209 245.234 105.022 244.923 105.851C244.427 107.174 244.11 108.661 243.104 109.645C242.644 111.861 242.059 114.284 240.235 115.628C238.65 116.798 236.442 116.839 234.591 116.132C232.74 115.424 231.237 114.07 229.912 112.609C228.587 111.149 227.403 109.558 225.98 108.198C225.165 107.433 224.298 106.724 223.387 106.076C222.469 105.41 221.525 104.783 220.555 104.196C219.962 103.79 219.296 103.5 218.594 103.342C218.017 103.232 217.42 103.348 216.927 103.668C216.815 103.744 216.714 103.835 216.627 103.939C216.385 104.276 216.202 104.652 216.085 105.049C214.947 108.014 211.893 109.536 209.454 111.558L207.227 113.403C206.924 113.655 206.588 114.023 206.737 114.389C206.839 114.574 207.005 114.717 207.203 114.79C208.498 115.43 210.018 115.687 211.086 116.663C211.476 117.02 211.85 117.492 212.378 117.519C212.657 117.502 212.931 117.441 213.191 117.337C213.599 117.227 214.026 117.213 214.44 117.295C214.855 117.378 215.244 117.556 215.578 117.814C215.768 117.999 215.988 118.15 216.228 118.261C216.43 118.315 216.64 118.327 216.846 118.299C217.423 118.259 218.036 118.207 218.553 118.464C219.071 118.722 219.496 119.329 220.1 119.372C220.396 119.394 220.748 119.296 221.03 119.323C221.107 119.326 221.183 119.347 221.251 119.385C221.319 119.422 221.377 119.476 221.42 119.54C221.483 119.689 221.526 119.846 221.547 120.006C221.658 120.388 222.032 120.621 222.276 120.936C222.65 121.418 222.704 122.074 222.666 122.683C222.544 124.59 221.694 126.376 220.293 127.674C219.895 128.081 219.387 128.363 218.832 128.487C218.554 128.545 218.265 128.515 218.005 128.399C217.746 128.284 217.529 128.09 217.385 127.845C217.325 127.634 217.234 127.433 217.114 127.249C216.678 126.769 215.7 127.279 215.299 126.767C215.05 126.447 215.228 125.935 214.99 125.604C214.752 125.274 214.177 125.333 213.736 125.314C213.218 125.287 212.738 125.043 212.237 124.916C211.424 124.705 210.573 124.783 209.742 124.726C209.05 124.665 208.364 124.557 207.688 124.401L204.241 123.697C202.046 123.25 199.844 122.797 197.755 121.998C196.955 121.694 196.15 121.32 195.587 120.67C195.133 120.099 194.841 119.415 194.742 118.692C194.251 115.801 196.852 113.33 197.18 110.417C197.297 109.355 197.722 108.352 198.123 107.366C198.858 105.603 199.592 103.839 200.323 102.074C200.442 101.746 200.596 101.431 200.784 101.137C201.096 100.76 201.447 100.417 201.832 100.115C202.859 99.1836 203.596 97.9757 203.954 96.6363C203.981 96.4872 204.043 96.3468 204.136 96.2271C204.232 96.1467 204.337 96.0785 204.45 96.0239C204.643 95.8979 204.789 95.7105 204.863 95.4918C204.937 95.2732 204.936 95.0359 204.859 94.8181C205.027 94.8042 205.185 94.7304 205.303 94.61C205.422 94.4897 205.493 94.3309 205.504 94.1624C205.484 94.0158 205.493 93.8666 205.531 93.7235C205.596 93.5826 205.759 93.5121 205.853 93.3875C206.008 93.1843 205.954 92.8998 205.929 92.6451C205.913 92.4838 205.913 92.3213 205.929 92.1601C205.989 91.5863 206.245 91.051 206.655 90.6454C207.303 90.0087 208.224 90.174 209.118 90.0222C210.01 89.8297 210.881 89.5511 211.72 89.1904C214.071 88.264 216.546 87.6915 219.065 87.4915C221.597 87.2924 224.139 87.6973 226.484 88.6729C226.825 88.811 227.147 88.9932 227.44 89.2148C227.649 89.3756 227.82 89.5799 227.942 89.8136C228.042 90.1004 228.165 90.3786 228.31 90.6454C228.6 91.041 229.147 91.1684 229.464 91.5423C229.782 91.9162 229.809 92.5475 230.071 93.0109C230.448 93.672 231.321 93.9782 231.581 94.6962C231.662 94.9238 231.673 95.1731 231.732 95.4088C231.879 95.9995 232.318 96.4656 232.705 96.9316C234.126 98.6306 235.035 100.698 235.328 102.893C235.415 101.519 236.339 100.302 237.496 99.5436C237.807 99.3404 238.168 99.1155 238.23 98.747C238.308 98.281 237.856 97.8664 237.886 97.3922C237.919 97.1607 238.012 96.942 238.157 96.7582C238.673 96.0097 239.24 95.2973 239.853 94.6258C240.186 94.26 240.56 93.8129 240.422 93.3306C240.316 92.9702 239.948 92.7589 239.745 92.4446C239.626 92.2572 239.565 92.039 239.57 91.8173C239.575 91.5956 239.645 91.3802 239.772 91.1982C239.961 90.9408 240.262 90.7538 240.354 90.4476C240.46 90.0873 240.224 89.6971 240.297 89.3259C240.396 89.0286 240.593 88.7736 240.855 88.6024C241.215 88.2751 241.624 88.0063 242.067 87.8058C242.782 87.5349 243.579 87.6351 244.337 87.7408C245.605 87.9169 247.028 88.1879 247.743 89.25C248.201 89.9139 248.434 90.9218 248.093 91.6317Z" fill="#65617D"/>
<path opacity="0.1" d="M253.956 89.8976C253.94 90.3176 253.888 90.7864 253.563 91.0492C253.28 91.2303 252.944 91.3097 252.609 91.2741H252.536C252.647 90.7105 253.333 90.3881 253.452 89.8164C253.472 89.6407 253.456 89.4628 253.405 89.2936C253.354 89.1244 253.268 88.9675 253.154 88.8328C252.574 88.0497 251.642 87.6162 250.715 87.2992C248.097 86.4016 245.293 86.1917 242.57 86.6895C241.83 86.8101 241.11 87.0316 240.43 87.3479C240.204 87.489 239.987 87.6428 239.78 87.8086C239.617 87.534 239.514 87.2285 239.476 86.9117C239.477 86.5959 239.586 86.29 239.785 86.0446C240.006 85.783 240.277 85.5676 240.581 85.4109C240.886 85.2542 241.218 85.1592 241.56 85.1315C242.243 85.0785 242.929 85.1149 243.603 85.2399L250.274 86.1991C250.788 86.2723 251.306 86.3454 251.813 86.4701C252.294 86.5535 252.748 86.7525 253.135 87.0499C253.932 87.711 253.997 88.8734 253.956 89.8976Z" fill="black"/>
<path opacity="0.1" d="M225.126 123.209C224.717 124.775 223.487 125.994 222.856 127.487C221.905 129.723 222.333 132.457 220.989 134.478C220.553 135.092 220.026 135.635 219.425 136.09C219.093 136.373 218.729 136.617 218.341 136.819C217.94 137.04 217.468 137.099 217.025 136.981C216.453 136.786 216.109 136.169 216.052 135.573C216.032 135.377 216.032 135.18 216.052 134.985L216.068 135.028C216.304 135.597 216.689 136.193 217.296 136.293C217.523 136.31 217.752 136.279 217.968 136.203C218.183 136.127 218.38 136.007 218.547 135.852C219.442 135.134 219.962 134.063 220.458 133.031C220.846 132.287 221.153 131.503 221.373 130.693C221.482 130.232 221.533 129.761 221.644 129.3C222.159 127.062 223.912 125.236 224.3 122.968C224.331 122.812 224.339 122.652 224.321 122.493C224.27 122.287 224.192 122.088 224.088 121.903C223.994 121.693 223.925 121.473 223.882 121.247C224.424 121.442 224.999 121.743 225.17 122.29C225.24 122.595 225.225 122.912 225.126 123.209Z" fill="black"/>
<path opacity="0.1" d="M221.035 119.323C220.784 119.979 220.362 120.555 219.813 120.992C219.041 121.58 218.138 121.971 217.182 122.13C216.736 122.244 216.269 122.238 215.827 122.114C215.225 121.906 214.792 121.342 214.177 121.179C213.738 121.06 213.266 121.166 212.822 121.101C212.023 120.99 211.402 120.38 210.757 119.892C208.782 118.407 206.189 117.928 204.214 116.443C204.126 116.389 204.053 116.314 204.002 116.224C203.965 116.126 203.951 116.021 203.962 115.917C203.969 115.017 204.171 114.128 204.555 113.314C204.869 112.745 205.244 112.212 205.671 111.723C207.441 109.555 209.218 107.371 211.337 105.543C212.226 104.776 213.196 104.06 214.318 103.714C214.941 103.521 216.171 103.34 216.93 103.665C216.818 103.741 216.717 103.832 216.629 103.936C216.388 104.273 216.205 104.649 216.087 105.047C214.946 108.014 211.893 109.536 209.454 111.558L207.227 113.403C206.923 113.655 206.587 114.023 206.736 114.389C206.839 114.574 207.004 114.716 207.202 114.79C208.498 115.43 210.018 115.687 211.085 116.663C211.475 117.02 211.849 117.492 212.378 117.519C212.657 117.502 212.931 117.441 213.19 117.337C213.598 117.227 214.026 117.213 214.44 117.295C214.854 117.378 215.244 117.556 215.578 117.814C215.767 117.999 215.987 118.15 216.228 118.261C216.429 118.314 216.639 118.327 216.846 118.299C217.423 118.258 218.035 118.207 218.553 118.464C219.07 118.722 219.496 119.329 220.1 119.372C220.401 119.394 220.753 119.291 221.035 119.323Z" fill="black"/>
<path d="M196.115 82.5491C195.6 82.8797 195.053 83.2536 194.841 83.8281C194.668 84.2968 194.749 84.8333 194.541 85.2885C194.332 85.7437 193.863 86.0607 193.76 86.5485C193.687 86.9034 193.831 87.2773 193.76 87.6323C193.699 87.8169 193.649 88.0051 193.611 88.1959C193.584 88.5996 193.931 88.9274 194.27 89.1523C194.991 89.6213 195.812 89.9147 196.667 90.0088C197.522 90.1029 198.387 89.9952 199.193 89.6942C199.916 89.4233 200.569 88.9816 201.263 88.6348C201.94 88.2453 202.713 88.0573 203.493 88.0929C203.94 88.1417 204.368 88.3042 204.815 88.3639C205.036 88.4075 205.264 88.3967 205.48 88.3325C205.696 88.2683 205.893 88.1526 206.054 87.9954C206.192 87.8047 206.284 87.5851 206.325 87.3532C206.701 85.8656 206.531 84.2887 206.173 82.793C205.815 81.2973 205.273 79.8586 204.891 78.371C204.62 77.2682 204.412 76.1383 203.959 75.0952C203.507 74.052 202.745 73.082 201.68 72.6836C201.596 72.6424 201.501 72.63 201.409 72.6484C201.341 72.677 201.281 72.7216 201.233 72.7785C200.391 73.6711 199.756 74.7389 199.375 75.9053C198.949 77.2032 198.833 78.5796 198.442 79.8829C198.274 80.4249 198.058 81.151 197.63 81.5656C197.202 81.9801 196.6 82.2375 196.115 82.5491Z" fill="#3F3D56"/>
<path opacity="0.1" d="M206.333 87.3452C206.287 87.5779 206.19 87.7973 206.048 87.9873C205.888 88.1451 205.691 88.261 205.475 88.3248C205.259 88.3885 205.03 88.3983 204.81 88.3531C204.366 88.2989 203.937 88.1336 203.49 88.0822C202.711 88.0461 201.937 88.2341 201.26 88.6241C200.567 88.9709 199.906 89.4017 199.188 89.6808C198.137 90.0791 196.99 90.1444 195.901 89.8678C195.323 89.7224 194.773 89.4806 194.275 89.1524C193.934 88.9302 193.59 88.6105 193.617 88.196C193.655 88.0061 193.704 87.8187 193.766 87.6351C193.836 87.2801 193.695 86.9062 193.766 86.5513C193.869 86.0635 194.34 85.7384 194.546 85.2886C194.752 84.8388 194.673 84.2996 194.844 83.8309C195.056 83.2537 195.606 82.8825 196.12 82.5492C196.635 82.216 197.248 81.9613 197.659 81.5575C197.713 81.4947 197.761 81.4276 197.803 81.357C198.1 80.899 198.318 80.3943 198.448 79.8641C198.846 78.5581 198.955 77.1843 199.377 75.8837C199.761 74.7182 200.396 73.6515 201.239 72.7596C201.284 72.7015 201.344 72.6565 201.412 72.6296C201.504 72.6109 201.599 72.6223 201.683 72.6621C202.745 73.0631 203.507 74.0331 203.962 75.0763C204.417 76.1195 204.609 77.2439 204.894 78.3494C205.273 79.837 205.818 81.2812 206.176 82.7741C206.533 84.2671 206.709 85.8549 206.333 87.3452Z" fill="black"/>
<path opacity="0.1" d="M214.391 54.2994C213.117 54.7042 211.738 54.6238 210.52 54.0736C209.301 53.5234 208.329 52.5423 207.791 51.3189C207.812 51.0649 207.848 50.8125 207.899 50.5629C208.17 49.3165 209.33 49.7717 210.245 50.1023C211.348 50.4604 212.414 50.9222 213.429 51.4814C213.738 51.6409 214.007 51.8688 214.215 52.148C214.616 52.7468 214.456 53.5434 214.391 54.2994Z" fill="black"/>
<path d="M212.755 54.2833C215.747 54.2833 218.174 51.8571 218.174 48.8642C218.174 45.8713 215.747 43.4451 212.755 43.4451C209.762 43.4451 207.335 45.8713 207.335 48.8642C207.335 51.8571 209.762 54.2833 212.755 54.2833Z" fill="#BE6F72"/>
<path opacity="0.1" d="M227.459 89.3612C227.459 89.811 226.849 89.9546 226.397 89.9302C224.771 89.8354 223.181 89.3883 221.571 89.5238C219.536 89.708 217.667 90.8325 215.626 90.9354C214.841 90.9761 214.041 90.8596 213.266 91.0032C212.264 91.1901 211.37 91.7998 210.348 91.8865C209.462 91.9623 208.587 91.6291 207.701 91.6643C207.082 91.7012 206.478 91.8732 205.932 92.1683C205.991 91.5945 206.248 91.0592 206.658 90.6536C207.305 90.0169 208.227 90.1822 209.121 90.0304C210.013 89.8379 210.884 89.5593 211.722 89.1986C214.073 88.2722 216.548 87.6997 219.068 87.4997C221.598 87.2985 224.139 87.7006 226.484 88.6729C226.825 88.8111 227.146 88.9933 227.44 89.2149C227.455 89.2622 227.461 89.3117 227.459 89.3612V89.3612Z" fill="black"/>
<path d="M210.248 58.7594L208.053 57.9466L207.127 57.6052C206.749 57.4469 206.352 57.3412 205.945 57.2909C204.883 57.2096 203.883 57.9168 203.317 58.8191C202.751 59.7213 202.537 60.797 202.355 61.8456C202.106 63.2799 201.894 64.7196 201.721 66.1647C201.534 67.4696 201.439 68.7861 201.437 70.1044C201.499 73.4588 202.209 76.7672 202.989 80.0322C203.371 81.4798 203.66 82.9505 203.853 84.4352C203.918 85.0476 203.948 85.6626 204.013 86.2777C204.084 86.9686 204.198 87.6515 204.311 88.337L204.964 92.2306C205.777 91.6535 206.701 91.1468 207.701 91.117C208.587 91.0845 209.465 91.415 210.348 91.3392C211.364 91.2552 212.264 90.6455 213.266 90.4585C214.041 90.3149 214.841 90.4287 215.629 90.3908C217.667 90.2878 219.539 89.1607 221.571 88.9791C223.183 88.8328 224.785 89.288 226.4 89.3829C226.849 89.4099 227.459 89.2663 227.459 88.8138C227.459 88.4995 227.145 88.2909 226.871 88.1338C225.581 87.357 224.354 86.481 223.2 85.5136C222.132 84.6682 221.048 83.8012 220.314 82.6577C218.545 79.9075 219.152 76.1873 217.642 73.2854C216.415 70.9281 217.642 67.8392 217.642 65.1811C217.642 63.8561 217.642 62.5149 217.331 61.2278C217.136 60.508 216.893 59.802 216.605 59.1144L215.551 56.4455C215.529 56.3675 215.486 56.2971 215.426 56.2423C215.355 56.1934 215.271 56.1679 215.185 56.1691C214.552 56.1312 213.928 56.3312 213.434 56.73C212.939 57.1337 212.622 57.7136 212.134 58.1335C211.6 58.5969 210.912 59.0033 210.248 58.7594Z" fill="#E3E8F4"/>
<path d="M213.79 57.2203C213.963 56.4779 214.15 55.7057 214.646 55.1258C215.142 54.546 216.047 54.2398 216.686 54.6544C217.412 55.1258 217.442 56.2151 218.063 56.822C218.604 57.3422 219.417 57.3829 220.154 57.4506C221.479 57.5712 222.781 57.8777 224.021 58.361C224.263 58.436 224.483 58.5679 224.663 58.7458C225.002 59.1305 224.934 59.7212 225.102 60.2008C225.332 60.8186 225.969 61.2115 226.216 61.8266C226.487 62.5094 226.216 63.2735 225.988 63.9752C225.579 65.2352 225.321 66.5439 224.923 67.8093C224.525 69.0746 223.959 70.321 223.026 71.2748C222.615 71.6975 222.002 72.0876 221.46 71.8356L221.252 73.3395C221.191 73.6572 221.191 73.9836 221.252 74.3013C221.283 74.4603 221.359 74.6072 221.47 74.7251C221.581 74.843 221.723 74.9272 221.88 74.9679C221.921 75.2009 222.167 75.312 222.368 75.4394C222.516 75.5406 222.642 75.6702 222.74 75.8206C222.838 75.9711 222.904 76.1394 222.936 76.3158C222.968 76.4922 222.965 76.6733 222.926 76.8484C222.888 77.0235 222.815 77.1893 222.712 77.3361C222.541 77.5664 222.289 77.7479 222.208 78.0216C222.086 78.4172 222.376 78.8344 222.728 79.0512C223.081 79.268 223.495 79.3682 223.853 79.5769C224.595 80.005 224.994 80.8476 225.248 81.6659C225.438 82.2837 225.595 82.953 226.061 83.4027C226.24 83.5734 226.454 83.7035 226.625 83.8823C226.92 84.2314 227.091 84.6691 227.11 85.126C227.184 85.6924 227.059 86.2669 226.757 86.7518C226.216 87.5267 225.205 87.757 224.319 88.1065C222.88 88.6972 221.696 89.754 220.428 90.6535C219.912 91.0695 219.303 91.3556 218.653 91.4881C217.775 91.6046 216.911 91.2171 216.028 91.1819C215.499 91.1868 214.973 91.2559 214.462 91.3878L212.836 91.7401C212.922 90.4801 212.229 89.2175 211.841 88.0171C211.11 85.7574 210.974 83.3404 211.148 80.9723C211.321 78.6041 211.803 76.2685 212.28 73.9437C212.614 72.318 212.581 70.6191 213.093 69.0394C213.573 67.5193 214.258 66.0589 214.51 64.4765C214.922 61.916 213.21 59.7456 213.79 57.2203Z" fill="#3F3D56"/>
<path d="M226.115 62.2304C226.265 62.5058 226.37 62.8029 226.427 63.111C226.552 63.5883 226.787 64.0299 227.112 64.4008C227.385 64.6412 227.627 64.9142 227.833 65.2136C228.082 65.6851 227.988 66.2595 228.104 66.7743C228.24 67.3352 228.633 67.8229 228.689 68.4001C228.691 68.5655 228.706 68.7304 228.735 68.8932C228.912 69.5489 229.876 69.7061 230.09 70.3618C230.234 70.7872 229.987 71.2505 230.033 71.6976C230.067 71.8359 230.075 71.9791 230.058 72.1203C229.996 72.28 229.889 72.4177 229.749 72.5159C228.852 73.3726 228.231 74.4773 227.966 75.6888C227.705 76.8936 227.568 78.1221 227.557 79.3548L226.497 77.954C226.385 77.784 226.242 77.6369 226.075 77.5205C225.939 77.4392 225.782 77.3985 225.644 77.3172C225.243 77.0896 225.086 76.6073 224.931 76.1738C224.502 74.9737 223.86 73.8612 223.035 72.8898C222.604 72.3831 222.102 71.8737 222.008 71.2153C221.979 70.9129 221.996 70.6079 222.056 70.3103C222.327 68.5356 222.617 66.7175 223.482 65.1432C223.885 64.4062 224.408 63.7396 224.796 62.9918C225.056 62.496 225.422 61.2062 226.115 62.2304Z" fill="#3F3D56"/>
<path d="M199.386 63.9346C199.391 64.1627 199.332 64.3877 199.218 64.5848C199.114 64.7049 198.979 64.7937 198.828 64.8416C198.677 64.8894 198.515 64.8944 198.361 64.8558C198.053 64.7784 197.762 64.6422 197.505 64.4548C196.75 63.9779 195.995 63.5001 195.24 63.0214C194.818 62.7674 194.412 62.4887 194.023 62.1869C193.429 61.6852 192.89 61.1211 192.417 60.5043C191.1 58.8785 189.935 57.1146 188.469 55.6271C188.071 55.2206 187.656 54.8304 187.271 54.405C186.745 53.7901 186.262 53.1401 185.824 52.4596C185.402 51.8337 184.963 51.14 185.036 50.3922C185.079 49.9695 185.282 49.5793 185.342 49.1593C185.402 48.7394 185.242 48.2272 184.835 48.1134C184.787 48.1014 184.738 48.0932 184.689 48.0891C184.609 48.0806 184.53 48.0633 184.453 48.0376C184.077 47.8804 184.134 47.2979 184.405 46.9917C184.675 46.6855 185.076 46.5148 185.323 46.1788C185.438 45.9795 185.566 45.7884 185.708 45.6071C185.889 45.4515 186.106 45.3427 186.339 45.2901C187.902 44.8295 189.555 44.7671 191.149 45.1086C191.42 45.1682 191.728 45.2765 191.81 45.5394C191.842 45.6674 191.842 45.8015 191.81 45.9295C191.69 46.4638 191.621 47.0081 191.604 47.5553C191.603 47.6694 191.61 47.7834 191.623 47.8967C191.75 49.0455 192.495 50.0183 193.221 50.9151C194.083 51.9827 194.958 53.0421 195.836 54.0989C196.311 54.7112 196.842 55.2781 197.421 55.7923C197.963 56.2421 198.665 56.6052 199.088 57.1823C199.432 57.6484 199.321 58.2851 199.359 58.846C199.485 60.5395 199.494 62.2398 199.386 63.9346V63.9346Z" fill="#3F3D56"/>
<path d="M233.797 75.2389C234.065 74.9787 234.306 74.6928 234.518 74.3853C234.746 74.0044 234.927 73.5978 235.06 73.1742L236.631 68.717C236.881 68.0125 237.13 67.3053 237.444 66.6198C237.769 65.88 238.154 65.1674 238.509 64.4521C239.422 62.5696 240.128 60.5936 240.614 58.5588C240.7 58.2792 240.728 57.9853 240.698 57.6945C240.622 57.2257 240.267 56.8599 239.929 56.5267C239.588 56.1588 239.2 55.838 238.774 55.5729C238.561 55.44 238.323 55.351 238.074 55.311C237.826 55.271 237.572 55.2808 237.328 55.3399C236.634 55.5431 236.198 56.253 236.038 56.9656C235.878 57.6782 235.938 58.4071 235.87 59.1333C235.772 60.1737 235.415 61.179 235.328 62.2221C235.282 62.8264 235.328 63.436 235.255 64.0375C235.121 64.8275 234.846 65.5867 234.442 66.2784C233.562 67.926 232.372 69.3888 230.938 70.5866C230.546 70.8765 230.192 71.2162 229.887 71.5972C229.632 71.9783 229.46 72.4083 229.38 72.8599C229.2 73.5474 229.279 74.2771 229.6 74.911C230.042 75.6643 230.89 75.9948 231.7 76.1628C232.794 76.3904 233.046 76.0165 233.797 75.2389Z" fill="#BE6F72"/>
<path d="M212.787 41.0118C213.02 40.5735 213.378 40.2135 213.814 39.9769C214.251 39.7403 214.747 39.6376 215.242 39.6814C215.74 39.7696 216.204 39.9956 216.58 40.3337C216.957 40.6717 217.231 41.1085 217.372 41.5944C217.499 41.9981 217.551 42.4452 217.773 42.792C218.109 43.3149 218.732 43.4667 219.198 43.846C219.476 44.1045 219.7 44.416 219.856 44.7621C220.013 45.1083 220.098 45.4822 220.108 45.8619C220.134 46.6375 220.012 47.4109 219.748 48.1406C219.636 48.452 219.546 48.7707 219.477 49.0944C219.423 49.4087 219.417 49.7284 219.369 50.0427C219.309 50.4503 219.168 50.8417 218.954 51.194C218.74 51.5462 218.459 51.8522 218.125 52.0939C218.03 52.1714 217.912 52.2143 217.789 52.2158C217.578 52.1914 217.448 51.9449 217.369 51.7227C216.938 50.479 217.041 48.9589 216.247 47.9672C215.886 47.5672 215.45 47.2422 214.963 47.0108C214.764 46.8827 214.541 46.7987 214.307 46.7642C213.964 46.7827 213.633 46.9034 213.359 47.111C212.787 47.4946 212.152 47.7752 211.484 47.9401C211.15 48.0192 210.803 48.0227 210.468 47.9505C210.133 47.8783 209.818 47.7322 209.547 47.5229C209.173 47.214 208.899 46.7506 208.484 46.5095C208.07 46.2683 207.636 46.2819 207.227 46.1166C206.966 46.0057 206.734 45.8367 206.549 45.6226C206.363 45.4085 206.229 45.1548 206.156 44.8809C206.084 44.607 206.075 44.3202 206.13 44.0422C206.185 43.7643 206.302 43.5025 206.474 43.277C206.745 42.9518 207.146 42.7676 207.387 42.4072C207.699 41.9412 207.672 41.3017 207.821 40.7435C207.909 40.3904 208.08 40.0634 208.32 39.7896C208.56 39.5158 208.861 39.3032 209.2 39.1693C209.528 39.0578 209.88 39.0365 210.22 39.1075C210.559 39.1785 210.873 39.3393 211.129 39.573C211.4 39.8169 211.617 40.1312 211.882 40.3859C212.144 40.6368 212.465 40.8179 212.816 40.9126C213.166 41.0073 213.534 41.0125 213.887 40.9278" fill="#3F3D56"/>
<path opacity="0.1" d="M217.242 80.8938C217.084 81.0343 216.972 81.2191 216.921 81.424C216.87 81.6289 216.881 81.8445 216.955 82.0427C217.014 82.17 219.81 81.6308 220.106 81.5902C220.843 81.4845 222.135 81.536 222.631 80.8613C223.514 79.6664 220.778 79.932 220.276 79.9753C219.323 80.0566 217.968 80.1867 217.242 80.8938Z" fill="black"/>
<path d="M191.804 45.9404C191.685 46.4746 191.616 47.0189 191.598 47.5661C190.786 47.7314 189.94 47.4604 189.16 47.1895L186.919 46.4254C186.783 46.3383 186.618 46.3063 186.459 46.336C186.3 46.3657 186.159 46.4548 186.063 46.5853C185.702 46.9592 185.207 47.6691 184.708 48.0891C184.628 48.0806 184.549 48.0633 184.472 48.0376C184.096 47.8804 184.153 47.2979 184.424 46.9917C184.695 46.6855 185.096 46.5148 185.342 46.1788C185.457 45.9795 185.585 45.7884 185.727 45.6071C185.908 45.4515 186.125 45.3427 186.358 45.2901C187.921 44.8295 189.574 44.7671 191.168 45.1086C191.439 45.1682 191.747 45.2765 191.829 45.5394C191.855 45.6729 191.847 45.811 191.804 45.9404Z" fill="#3F3D56"/>
<path opacity="0.1" d="M191.804 45.9404C191.685 46.4746 191.616 47.0189 191.598 47.5661C190.786 47.7314 189.94 47.4604 189.16 47.1895L186.919 46.4254C186.783 46.3383 186.618 46.3063 186.459 46.336C186.3 46.3657 186.159 46.4548 186.063 46.5853C185.702 46.9592 185.207 47.6691 184.708 48.0891C184.628 48.0806 184.549 48.0633 184.472 48.0376C184.096 47.8804 184.153 47.2979 184.424 46.9917C184.695 46.6855 185.096 46.5148 185.342 46.1788C185.457 45.9795 185.585 45.7884 185.727 45.6071C185.908 45.4515 186.125 45.3427 186.358 45.2901C187.921 44.8295 189.574 44.7671 191.168 45.1086C191.439 45.1682 191.747 45.2765 191.829 45.5394C191.855 45.6729 191.847 45.811 191.804 45.9404Z" fill="black"/>
<path opacity="0.1" d="M212.302 97.3815C212.692 97.5115 213.115 97.7012 213.248 98.0914L210.11 97.2948L208.484 96.8802C208.197 96.807 207.168 96.723 206.978 96.4981C206.707 96.1676 207.669 96.3952 207.842 96.4196C208.368 96.4981 208.894 96.5794 209.417 96.6743C210.403 96.8504 211.351 97.1403 212.302 97.3815Z" fill="black"/>
<path opacity="0.1" d="M213.519 100.159C213.248 99.9771 212.47 99.9988 212.137 99.9202C211.649 99.8037 211.17 99.6493 210.69 99.5003C209.717 99.1832 208.753 98.8229 207.753 98.5899C207.569 98.5492 206.94 98.5384 206.97 98.3053C207 98.0723 207.598 97.991 207.747 97.9802C208.633 97.9152 209.739 98.3297 210.563 98.6251C211.612 99.0011 212.607 99.517 213.519 100.159V100.159Z" fill="black"/>
<path opacity="0.1" d="M211.53 94.9049C210.535 94.634 209.633 94.0162 208.609 93.897C208.342 93.9071 208.079 93.8269 207.864 93.6694C207.743 93.551 207.66 93.4005 207.623 93.2358C208.308 93.2006 209.105 93.4905 209.728 93.7642C210.071 93.9113 210.401 94.0872 210.714 94.2899C210.942 94.428 211.283 94.8263 211.53 94.9049Z" fill="black"/>
<path d="M230.486 70.6436C230.318 71.7701 230.561 72.9194 231.171 73.8812C231.781 74.8431 232.717 75.553 233.808 75.8811C233.675 76.5233 233.011 76.8782 232.543 77.3362C231.881 77.9783 231.54 78.9402 230.76 79.4279C229.89 79.9699 228.771 79.7585 227.779 79.5309C227.689 79.5208 227.606 79.4773 227.546 79.409C227.526 79.3765 227.511 79.3408 227.503 79.3033C227.175 78.103 226.961 76.8213 227.297 75.6183C227.568 74.5941 228.218 73.7216 228.738 72.8166C229.259 71.9116 229.307 70.9416 230.486 70.6436Z" fill="#3F3D56"/>
<path d="M206.26 55.1068C205.211 55.1831 204.192 55.4933 203.279 56.0145C202.672 56.3613 202.049 56.8274 201.355 56.7434C200.946 56.6973 200.542 56.4724 200.144 56.5808C199.92 56.6713 199.711 56.7956 199.524 56.9493C199.429 57.0248 199.316 57.0744 199.197 57.0934C199.077 57.1124 198.954 57.1001 198.841 57.0577L198.57 60.8077C198.467 62.2329 198.367 63.688 198.708 65.078C198.884 65.7879 199.272 66.4327 199.315 67.1535C199.358 67.8742 199.293 68.6139 199.345 69.3428C199.394 70.0175 199.543 70.6813 199.581 71.356C199.656 72.6295 199.342 73.8922 199.039 75.1304C198.581 76.9567 198.304 78.8235 197.413 80.4764C197.164 80.9343 196.871 81.4003 196.871 81.9206C196.871 81.9856 196.871 82.0479 196.887 82.1102C196.616 82.2593 196.364 82.4002 196.134 82.5465C195.619 82.8798 195.069 83.251 194.858 83.8281C194.687 84.2969 194.766 84.8333 194.56 85.2858C194.354 85.7383 193.882 86.0608 193.779 86.5485C193.706 86.9034 193.847 87.2774 193.779 87.6323C193.718 87.816 193.668 88.0033 193.63 88.1932C193.603 88.5996 193.947 88.9275 194.289 89.1497C194.787 89.4778 195.336 89.7197 195.915 89.865L197.532 83.4433C199.007 80.7165 200.234 77.8627 201.198 74.9164C201.474 73.9533 201.828 73.0144 202.258 72.1093C202.564 71.5972 202.836 71.0649 203.071 70.516C203.317 69.8332 203.341 69.0935 203.461 68.3728C203.602 67.5316 203.815 66.704 204.097 65.899C204.39 65.0292 204.729 64.1621 204.788 63.249C204.878 61.943 204.404 60.5638 204.908 59.3554C205.122 58.9031 205.4 58.4841 205.734 58.1117C206.433 57.2555 207.07 56.3586 207.769 55.5024C207.406 55.1149 206.802 55.0743 206.26 55.1068Z" fill="#3F3D56"/>
<g opacity="0.1">
<path opacity="0.1" d="M213.895 40.1204L213.556 40.1447L213.519 40.1718C213.645 40.1667 213.772 40.1494 213.895 40.1204V40.1204Z" fill="black"/>
<path opacity="0.1" d="M220.094 45.7455C220.038 46.2842 219.922 46.8149 219.748 47.3279C219.636 47.6393 219.545 47.9579 219.477 48.2817C219.422 48.596 219.417 48.9157 219.368 49.23C219.308 49.6375 219.167 50.029 218.954 50.3812C218.74 50.7335 218.458 51.0395 218.125 51.2811C218.03 51.3586 217.911 51.4016 217.789 51.4031C217.577 51.3787 217.447 51.1321 217.369 50.9099C216.938 49.6662 217.041 48.1462 216.247 47.1545C215.886 46.7544 215.449 46.4294 214.963 46.198C214.764 46.07 214.54 45.9859 214.307 45.9514C213.963 45.9699 213.633 46.0907 213.358 46.2983C212.787 46.6819 212.152 46.9625 211.483 47.1274C211.15 47.2064 210.803 47.21 210.468 47.1378C210.132 47.0656 209.818 46.9195 209.546 46.7101C209.172 46.4012 208.899 45.9379 208.484 45.6967C208.069 45.4556 207.636 45.4691 207.227 45.3039C206.971 45.1947 206.743 45.0294 206.561 44.8202C206.378 44.611 206.244 44.3632 206.17 44.0954C206.16 44.0616 206.153 44.0272 206.148 43.9924C206.081 44.2949 206.088 44.6093 206.17 44.9083C206.244 45.1761 206.378 45.4238 206.561 45.633C206.743 45.8422 206.971 46.0076 207.227 46.1167C207.636 46.282 208.097 46.2847 208.484 46.5096C208.871 46.7345 209.172 47.2141 209.546 47.523C209.818 47.7324 210.132 47.8785 210.468 47.9507C210.803 48.0228 211.15 48.0193 211.483 47.9403C212.152 47.7753 212.787 47.4947 213.358 47.1111C213.633 46.9036 213.963 46.7828 214.307 46.7643C214.54 46.7988 214.764 46.8829 214.963 47.0109C215.443 47.2468 215.873 47.5745 216.228 47.9755C217.022 48.9672 216.919 50.4872 217.35 51.7309C217.428 51.9558 217.558 52.1997 217.77 52.2241C217.9 52.2247 218.026 52.1786 218.125 52.094C218.46 51.8517 218.743 51.5445 218.957 51.1908C219.171 50.837 219.312 50.4439 219.371 50.0347C219.42 49.7204 219.425 49.4007 219.479 49.0864C219.548 48.7627 219.638 48.444 219.75 48.1326C220.014 47.4029 220.137 46.6295 220.111 45.8539C220.105 45.8214 220.1 45.7834 220.094 45.7455Z" fill="black"/>
</g>
<circle cx="153.637" cy="102.421" r="55.5459" fill="#40CA67"/>
<path d="M100.752 92.8348C100.126 92.6262 96.4413 89.7107 96.1622 88.3911C95.8831 87.0716 98.1104 74.7783 98.1104 74.7783C98.1104 74.7783 97.9044 74.7783 97.5685 74.7377V74.5399L98.0264 58.3909C98.0264 58.3909 99.9041 47.5527 96.3573 48.184C92.8105 48.8153 95.035 58.3909 95.035 58.3909C95.035 58.3909 94.6313 63.2519 94.3468 64.7096C94.0758 66.1159 92.8349 71.8439 93.6802 73.624C93.7112 73.6873 93.7456 73.7488 93.7832 73.8083V73.8083C93.7832 73.8083 93.9241 79.9183 92.3932 80.7529C90.9328 81.5468 90.3258 85.5434 90.2743 85.901L90.1957 85.8685C89.7597 85.5957 89.3769 85.2459 89.0659 84.8362C89.0334 84.7955 89.009 84.7522 88.9792 84.7088C89.9761 83.5873 90.5133 82.1311 90.4837 80.6308C90.4541 79.1306 89.8597 77.6967 88.8193 76.6154C88.3355 76.1129 87.768 75.6985 87.1421 75.3907C87.1239 74.8729 87.0013 74.3642 86.7817 73.895C86.0772 72.3885 82.1755 70.4186 79.4036 70.3726C78.1247 70.3346 77.0761 70.6977 76.694 71.6976C76.4989 72.2042 76.5586 72.7814 76.4773 73.307C76.3147 74.3909 75.6183 75.2389 74.7242 75.9136C74.3631 75.5106 73.9728 75.1347 73.5564 74.7892C72.6514 74.0955 70.8468 71.8086 70.8468 71.8086C70.8468 71.8086 65.2136 65.975 64.7964 64.3763C64.3791 62.7777 58.7513 53.1777 57.4995 54.8495C56.2477 56.5213 61.8104 63.8073 61.8104 63.8073C61.8104 63.8073 62.8672 66.4546 63.68 67.3487C64.4929 68.2429 70.7249 77.2928 70.7249 77.2928L71.0229 77.9106C69.7061 78.6042 68.503 79.4875 68.0776 80.864C67.4544 82.8907 68.8173 84.9283 69.7603 86.825C71.5974 90.5263 71.8602 95.2463 69.4893 98.6278C67.365 101.614 63.68 103.034 60.2308 104.275C61.8966 105.583 63.966 106.27 66.0834 106.217C65.2868 108.526 62.4634 109.29 60.0574 109.718C61.32 110.932 63.1273 111.374 64.8614 111.642C65.7107 111.786 66.5713 111.854 67.4328 111.845H67.6441L67.8555 111.829C68.1491 111.809 68.4414 111.772 68.7306 111.718C69.9825 111.463 71.199 110.78 71.8385 109.675C72.3804 108.729 72.5701 107.439 73.5537 106.965C73.8098 106.85 74.0857 106.784 74.3665 106.773H74.3367C74.521 106.773 74.7106 106.773 74.8949 106.773L78.9944 106.813C79.1651 106.813 79.3413 106.813 79.5174 106.813C80.6744 106.786 81.9099 106.586 82.4979 105.629C82.7398 105.165 82.8671 104.649 82.8691 104.126C82.9558 102.828 82.8691 101.492 82.9043 100.183C83.2539 102.565 83.6197 106.277 82.7499 107.648C82.0433 108.687 81.1868 109.615 80.2083 110.404C79.9622 110.61 79.7371 110.841 79.5364 111.092C79.4036 111.187 79.325 111.238 79.325 111.238L79.241 111.49C78.9322 111.958 78.7084 112.478 78.5799 113.024C78.5326 113.164 78.5151 113.313 78.5284 113.46C78.6232 113.652 77.851 114.446 78.0759 114.779C76.1467 117.042 75.7809 120.47 75.7809 120.47L72.2585 125.818C70.4485 130.574 67.7389 131.061 67.7389 131.061C67.7389 131.061 61.3742 126.791 61.2008 126.582C61.0274 126.374 58.5942 125.331 58.5942 125.331C58.3073 124.827 57.8693 124.427 57.3424 124.187C56.5078 123.84 56.4374 122.561 56.4374 122.561C56.3344 119.54 54.5597 119.31 54.5597 119.31C53.129 119.188 52.0371 119.443 51.1971 119.909L50.9424 119.928C49.7123 120.028 48.2328 120.139 46.6071 120.247C42.0849 120.545 41.0092 123.474 41.0092 123.474C41.0092 123.474 40.4537 124.1 41.1826 124.778C41.9114 125.455 46.5773 124.778 46.7751 124.762C46.4195 124.8 46.0599 124.775 45.713 124.688C46.4472 124.661 47.4579 124.634 48.3195 124.634H48.5282C48.4739 125.091 48.4477 125.551 48.4496 126.011C48.4496 126.878 50.8476 127.433 50.8476 127.433L58.1498 133.936C58.1498 133.936 62.7398 135.987 65.6607 138.938C68.5816 141.889 71.1638 139.342 71.1638 139.342C74.2554 138.578 83.1509 127.823 83.159 127.812C83.159 128.127 83.346 138.586 83.7009 140.686C83.7151 140.792 83.7414 140.897 83.7795 140.997C84.1968 141.899 83.6386 144.365 83.3975 145.406C83.2437 146.276 83.1846 147.161 83.2214 148.045C83.2214 148.045 79.8859 160.78 80.1623 161.899C80.4386 163.018 78.355 168.217 78.355 168.217V172.553L78.7181 172.534C78.6708 172.604 78.6274 172.676 78.588 172.75L78.5636 172.797C78.5636 172.797 80.7882 173.282 82.2838 173.143C83.7795 173.005 86.3482 174.295 86.3482 174.295C86.3482 174.295 87.2179 174.707 89.895 174.88C92.572 175.054 92.572 173.699 92.572 173.699C92.2659 171.854 88.0362 171.236 87.9062 171.217C87.5648 171.003 87.245 170.77 86.9822 170.569L86.928 170.526C86.9457 170.485 86.9611 170.444 86.9741 170.401C87.4266 168.559 84.923 167.759 84.923 167.759V167.31C86.5487 166.475 86.8711 160.747 86.8711 160.747C86.8711 160.747 89.3097 153.664 89.6511 152.483C89.9925 151.302 89.6511 149.532 89.6511 149.532L89.895 148.004C89.895 148.004 90.4179 146.964 90.4179 146.755C90.4856 146.226 90.6891 145.724 91.0086 145.297C91.3907 144.845 90.5913 143.769 90.5913 143.769L91.2877 141.964V139.984L92.9134 132.798C92.9134 132.798 94.6177 124.428 94.0271 121.689C93.4364 118.95 94.7234 117.557 94.7234 117.557C94.6074 117.618 94.488 117.672 94.3658 117.719C94.5285 117.343 94.6687 116.958 94.7857 116.565L98.4436 117.018V117.072H99.7632C99.7632 117.072 99.3459 111.924 99.3459 109.848C99.3459 107.773 100.752 100.324 100.752 100.324C100.752 100.324 101.378 93.0434 100.752 92.8348ZM84.5138 86.825C84.5138 87.0282 84.4948 87.2396 84.4813 87.4563L84.4081 87.5674L84.2727 87.4536L84.1074 87.711L84.0586 87.7354C83.7009 87.5512 83.5167 86.4971 83.2593 86.7248L83.2241 86.7546C83.1672 86.6895 83.1103 86.6706 83.0506 86.7248L82.9965 86.7708C82.9965 86.6922 82.9965 86.6109 82.9965 86.5297C83.4922 86.6572 84.002 86.7219 84.5138 86.722C84.5165 86.7573 84.5138 86.7925 84.5138 86.825ZM96.6797 110.799H96.7583L96.6282 111.141C96.6445 111.027 96.6608 110.916 96.6797 110.799V110.799ZM83.3243 172.244L82.8258 172.119L83.0967 172.073L83.3487 172.238L83.3785 172.26L83.3243 172.244ZM88.4183 171.515C88.253 171.428 88.085 171.328 87.9224 171.225C87.9766 171.255 88.1907 171.366 88.4183 171.515V171.515Z" fill="url(#paint1_linear)"/>
<path d="M98.4791 105.681L95.1978 114.232H95.9944L92.9082 116.692L98.4791 117.386V105.681Z" fill="#F86D70"/>
<path opacity="0.1" d="M98.4791 105.681L95.1978 114.232L94.3714 114.01L92.9082 116.692L98.4791 117.386V105.681Z" fill="black"/>
<path d="M93.3335 111.151H98.4789L100.368 95.6121H93.3335V111.151Z" fill="#F86D70"/>
<path opacity="0.1" d="M93.3335 111.151H98.4789L100.368 95.6121H93.3335V111.151Z" fill="black"/>
<path d="M83.2836 99.2916L84.3945 99.1046L86.9469 98.6711C86.9469 98.6711 94.6123 96.9424 96.1947 96.8015C97.1532 96.6749 98.0881 96.4084 98.9692 96.0103C99.3838 95.8315 99.6466 95.696 99.6466 95.696L96.8856 90.6535L92.6018 87.4779C92.6018 87.4779 89.8922 86.9008 88.7461 85.3238C88.4903 84.9845 88.3238 84.5864 88.2617 84.1661C88.1997 83.7457 88.2442 83.3165 88.3911 82.9177C89.0902 80.7501 84.2157 84.9906 84.2157 84.9906C84.2157 84.9906 84.2618 86.0066 84.2157 87.3018C84.2157 87.5565 84.1913 87.822 84.1723 88.093C84.1723 88.2718 84.148 88.4507 84.129 88.6349C84.0098 89.9219 83.7659 91.2469 83.2836 92.0381C82.105 93.9727 83.2836 99.2916 83.2836 99.2916Z" fill="#FBBEBE"/>
<path opacity="0.1" d="M84.2158 87.4103H84.3242C84.5193 87.4103 84.6764 86.9957 84.8661 86.9767C86.3916 86.8304 87.7843 86.5107 88.7516 85.4296C88.4965 85.0904 88.3304 84.6928 88.2684 84.273C88.2064 83.8532 88.2505 83.4246 88.3967 83.0262C89.0957 80.8585 84.2212 85.0963 84.2212 85.0963C84.2212 85.0963 84.2727 86.1151 84.2158 87.4103Z" fill="black"/>
<path d="M78.2817 81.265C78.2814 82.045 78.4348 82.8175 78.7331 83.5383C79.0315 84.2591 79.4689 84.9139 80.0205 85.4655C80.5721 86.0171 81.227 86.4546 81.9478 86.753C82.6685 87.0513 83.441 87.2047 84.2211 87.2043C84.4162 87.2043 84.6086 87.2043 84.8009 87.1772C85.9454 87.065 87.0326 86.6229 87.9306 85.9047C88.8287 85.1865 89.4989 84.223 89.86 83.1313C90.2211 82.0395 90.2575 80.8664 89.9648 79.7544C89.6721 78.6424 89.0628 77.6392 88.211 76.8667C87.3592 76.0942 86.3015 75.5856 85.1662 75.4026C84.031 75.2196 82.867 75.3701 81.8156 75.8358C80.7642 76.3015 79.8706 77.0625 79.2433 78.0262C78.616 78.9899 78.282 80.1151 78.2817 81.265Z" fill="#FBBEBE"/>
<path d="M76.4584 72.2502C76.2633 72.7542 76.3229 73.3178 76.2444 73.8516C75.9544 75.7781 73.9954 76.9323 72.2234 77.7398C70.4513 78.5472 68.4517 79.5037 67.8881 81.3652C67.2703 83.3784 68.6197 85.397 69.5572 87.2856C71.3834 90.9651 71.6435 95.6581 69.2862 99.0234C67.1917 102.004 63.542 103.418 60.1063 104.659C61.7598 105.96 63.8149 106.644 65.9183 106.594C65.1298 108.889 62.3254 109.65 59.9355 110.073C61.1901 111.281 62.9865 111.72 64.7071 111.986C65.9616 112.181 67.2486 112.308 68.5005 112.056C69.7523 111.804 70.9391 111.124 71.5839 110.024C72.1258 109.084 72.3101 107.802 73.2882 107.328C73.7298 107.154 74.2054 107.085 74.6782 107.125L78.7426 107.168C80.0079 107.168 81.5063 107.071 82.1593 105.99C82.4002 105.528 82.5266 105.015 82.5278 104.494C82.704 101.828 82.1918 99.0098 83.2892 96.5766C83.6198 95.8423 81.4982 94.6799 81.7204 93.9023C82.4845 91.228 82.6769 89.1226 82.6687 86.3399C82.6687 84.1858 84.0696 82.3298 85.2266 80.5117C86.3835 78.6936 87.3508 76.3986 86.4377 74.4477C85.4081 72.2719 77.675 69.1099 76.4584 72.2502Z" fill="#3F3D56"/>
<path d="M81.8691 171.463L82.9042 172.149L83.0641 172.255L83.0939 172.274L84.3213 173.086L87.188 173.569L89.7079 173.395C89.7079 173.395 90.434 171.878 89.2933 171.913C88.928 171.894 88.5719 171.791 88.2529 171.612L88.0957 171.534C87.9304 171.447 87.7651 171.35 87.6026 171.247C87.2639 171.033 86.9441 170.8 86.6867 170.602C86.3074 170.309 86.0554 170.087 86.0554 170.087L81.8691 171.463Z" fill="#FBBEBE"/>
<path opacity="0.1" d="M82.918 172.149L83.0778 172.254L83.1076 172.273L84.3351 173.086L87.2018 173.569L89.7217 173.395C89.7217 173.395 90.4478 171.878 89.3071 171.913C88.9417 171.894 88.5856 171.791 88.2666 171.612C88.4671 171.769 88.6351 171.94 88.6514 172.084C88.6975 172.471 86.7872 173.168 86.7872 173.168L84.0939 172.455C84.0939 172.455 83.636 172.325 83.0101 172.162L82.9505 172.146L82.918 172.149Z" fill="black"/>
<path d="M78.3115 172.81C78.3115 172.81 80.5198 173.292 82.0047 173.154C83.4895 173.016 86.0473 174.295 86.0473 174.295C86.0473 174.295 86.9117 174.701 89.5697 174.875C92.2278 175.048 92.2278 173.699 92.2278 173.699C91.9243 171.864 87.7245 171.26 87.5945 171.233C87.646 171.26 87.8654 171.371 88.0876 171.52C88.3857 171.715 88.7081 171.97 88.7325 172.176C88.7785 172.561 86.8683 173.26 86.8683 173.26L84.175 172.55C84.175 172.55 83.7171 172.417 83.0912 172.255H83.0316C82.1035 172.002 81.1605 171.807 80.2082 171.672C79.0485 171.547 78.4551 172.534 78.3332 172.756C78.3243 172.773 78.3171 172.791 78.3115 172.81V172.81Z" fill="#3F3D56"/>
<path d="M43.5049 124.084L44.6781 124.984C44.6781 124.984 45.0195 124.967 45.5289 124.951H45.6915C46.4204 124.924 47.4256 124.897 48.2791 124.897C48.8309 124.872 49.3837 124.903 49.9292 124.989C50.5145 125.195 51.555 121.64 51.555 121.64L50.379 121.369L49.9889 121.277L49.7179 121.212L48.7614 120.987L45.8622 121.318L43.8246 122.629L43.5049 124.084Z" fill="#FBBEBE"/>
<path opacity="0.1" d="M43.5049 124.084L44.6781 124.984C44.6781 124.984 45.0195 124.967 45.5289 124.951C45.2952 124.861 45.1024 124.688 44.987 124.466C44.2283 122.361 47.9919 121.461 47.9919 121.461L49.745 121.385L50.0864 121.369H50.3574L49.9672 121.277L49.6962 121.212L48.7397 120.987L45.8405 121.318L43.8029 122.629L43.5049 124.084Z" fill="black"/>
<path d="M41.1909 125.035C41.9008 125.691 46.5504 125.035 46.7455 125.019C46.3926 125.059 46.0355 125.034 45.6915 124.946C45.5212 124.915 45.3598 124.847 45.2192 124.746C45.0786 124.646 44.9622 124.515 44.8786 124.363C44.1199 122.255 47.8835 121.358 47.8835 121.358L49.6366 121.282L49.9753 121.266L54.2374 121.082L54.4434 119.909C54.4434 119.909 53.0588 120.039 50.8857 120.212C49.6637 120.312 48.1762 120.424 46.5694 120.529C42.0796 120.827 41.0121 123.74 41.0121 123.74C41.0121 123.74 40.4675 124.363 41.1909 125.035Z" fill="#3F3D56"/>
<path d="M93.3359 74.1766C93.3648 74.2409 93.3992 74.3026 93.4389 74.3608L94.474 75.8782L97.1673 76.1492L97.1971 75.0816L97.6496 59.0193C97.6496 59.0193 99.5137 48.2461 95.9913 48.8666C92.4689 49.4871 94.6799 59.0193 94.6799 59.0193C94.6799 59.0193 94.2789 63.8532 93.9971 65.3055C93.7234 66.7091 92.496 72.4154 93.3359 74.1766Z" fill="#FBBEBE"/>
<path d="M87.291 114.072L88.0578 115.384L89.773 118.318C89.773 118.318 92.8835 119.459 93.6801 118.589C94.1164 118.115 94.5879 116.459 94.9184 115.067C95.1894 113.94 95.3709 112.989 95.3709 112.989L87.291 114.072Z" fill="#FBBEBE"/>
<path opacity="0.1" d="M87.291 114.072L88.0578 115.384C88.1059 115.342 88.1495 115.296 88.1879 115.245C89.0549 114.14 92.8727 115.01 94.9184 115.08C95.1894 113.953 95.3709 113.002 95.3709 113.002L87.291 114.072Z" fill="black"/>
<path opacity="0.1" d="M48.2791 124.892C48.8308 124.867 49.3836 124.898 49.9292 124.984C50.5144 125.19 51.5549 121.635 51.5549 121.635L49.9888 121.266L54.2509 121.082L54.4568 119.909C54.4568 119.909 53.0723 120.039 50.8992 120.212C50.4502 120.471 50.0495 120.805 49.7151 121.201L49.6501 121.282C48.7424 122.396 48.4064 123.832 48.2791 124.892Z" fill="black"/>
<path opacity="0.1" d="M81.8691 171.463L83.0641 172.255C84.8469 171.932 86.4754 171.426 86.6678 170.629C86.6687 170.616 86.6687 170.604 86.6678 170.591C86.2884 170.298 86.0364 170.076 86.0364 170.076L81.8691 171.463Z" fill="black"/>
<path opacity="0.1" d="M78.3359 172.764C79.9104 172.686 81.4791 172.517 83.0343 172.26C82.1055 172.005 81.1616 171.809 80.2082 171.672C79.0513 171.547 78.4579 172.534 78.3359 172.764Z" fill="black"/>
<path d="M48.4089 126.26C48.4089 127.124 50.7906 127.677 50.7906 127.677L58.0441 134.134C58.0441 134.134 62.6016 136.172 65.5008 139.106C68.4001 142.04 70.9579 139.521 70.9579 139.521C74.0305 138.762 82.8799 128.056 82.8799 128.056C82.8799 128.056 83.0859 140.282 83.5004 141.179C83.915 142.076 83.3622 144.528 83.1211 145.566C82.9689 146.431 82.9108 147.31 82.9477 148.188C82.9477 148.188 79.6339 160.861 79.9102 161.966C80.1866 163.072 78.1138 168.253 78.1138 168.253V172.569C78.1138 172.569 86.2289 172.257 86.676 170.428C87.1231 168.599 84.6411 167.803 84.6411 167.803V167.353C86.2669 166.524 86.573 160.828 86.573 160.828C86.573 160.828 88.9927 153.784 89.3368 152.61C89.6809 151.437 89.3368 149.673 89.3368 149.673L89.5779 148.156C89.5779 148.156 90.0955 147.118 90.0955 146.912C90.1631 146.386 90.3657 145.887 90.6835 145.463C91.0628 145.013 90.2689 143.943 90.2689 143.943L90.9598 142.146V140.179L92.5856 133.031C92.5856 133.031 94.279 124.707 93.6911 121.979C93.1031 119.25 94.382 117.871 94.382 117.871C91.6101 119.323 90.212 116.091 89.7541 114.701C89.6376 114.343 89.5807 114.105 89.5807 114.105C89.5807 114.105 85.7737 112.701 82.2296 113.037C81.5099 113.096 80.8005 113.246 80.1189 113.484C76.1819 114.901 75.5614 120.77 75.5614 120.77L72.0742 126.089C70.2778 130.82 67.5845 131.302 67.5845 131.302C67.5845 131.302 61.2658 127.057 61.0815 126.848C60.8973 126.639 58.4912 125.604 58.4912 125.604C58.2067 125.103 57.7715 124.705 57.2475 124.466C56.4184 124.119 56.3507 122.84 56.3507 122.84C56.2477 119.836 54.4865 119.589 54.4865 119.589C48.3737 119.08 48.4089 125.398 48.4089 126.26Z" fill="#3F3D56"/>
<path d="M83.5627 109.376H87.291V97.8094H83.5627V109.376Z" fill="#F86D70"/>
<path opacity="0.1" d="M83.5627 109.376H87.291V97.8094H83.5627V109.376Z" fill="black"/>
<path opacity="0.1" d="M93.3335 74.1523C93.3329 74.1605 93.3329 74.1686 93.3335 74.1767C93.3623 74.241 93.3968 74.3027 93.4364 74.361L94.4715 75.8783L97.1648 76.1493L97.1946 75.0817C96.3546 75.0167 94.4417 74.7864 93.3335 74.1523Z" fill="black"/>
<path d="M93.4394 74.3611C93.4394 74.3611 93.5776 80.4359 92.0575 81.265C90.5375 82.0942 89.9468 86.4132 89.9468 86.4132C89.9468 86.4132 94.553 89.4425 95.5799 90.7756C96.6069 92.1087 98.9642 95.2843 98.4792 96.043C97.9942 96.8016 99.6551 100.256 99.6551 100.256C99.6551 100.256 96.615 106.472 97.3059 108.821C97.9969 111.17 98.0646 117.383 98.0646 117.383H99.3787C99.3787 117.383 98.9642 112.273 98.9642 110.2C98.9642 108.128 100.343 100.739 100.343 100.739C100.343 100.739 100.967 93.4879 100.343 93.2819C99.7201 93.076 96.0622 90.1741 95.7859 88.8599C95.5095 87.5458 97.7205 75.3121 97.7205 75.3121C97.7205 75.3121 94.889 75.1902 93.4394 74.3611Z" fill="#F86D70"/>
<path opacity="0.1" d="M83.4927 96.7366C83.6187 97.5819 83.9266 98.3898 84.395 99.1047L86.9474 98.6712C86.9474 98.6712 94.6127 96.9425 96.1951 96.8016C97.1537 96.675 98.0885 96.4085 98.9697 96.0104C98.3623 93.8583 97.1769 91.9138 95.5421 90.3881L94.5693 89.4858C93.1359 88.155 91.4747 87.0931 89.665 86.3508C89.7788 86.4457 97.8208 93.3117 96.0596 94.6583C94.2984 96.005 89.5567 92.7264 89.5567 92.7264L84.1646 88.0931L83.9696 87.9251L83.658 88.4101C83.8165 88.4753 83.9712 88.5495 84.1213 88.6323C85.959 89.6409 87.3227 91.3359 87.9147 93.3469C89.0229 97.0725 83.4927 96.7366 83.4927 96.7366Z" fill="black"/>
<path d="M81.834 114.002C81.834 114.002 86.9442 116.833 88.1852 115.246C88.4561 114.896 89.0279 114.744 89.7405 114.704C89.624 114.346 89.5671 114.108 89.5671 114.108C89.5671 114.108 85.7601 112.704 82.216 113.04C81.983 113.625 81.834 114.002 81.834 114.002Z" fill="#444053"/>
<path d="M84.1859 87.9304L89.773 92.7372C89.773 92.7372 94.4957 96.0266 96.2759 94.6691C98.0561 93.3116 89.8787 86.3589 89.8787 86.3589C91.6844 87.1034 93.344 88.162 94.7802 89.4857L95.753 90.388C98.3108 92.7589 98.8879 92.7589 98.9746 96.2434C98.9963 97.1023 98.7037 98.3351 98.4788 98.5573C97.6497 99.3702 97.0698 105.274 97.1972 105.965C97.3245 106.656 95.6527 112.62 96.1946 114.278C96.7365 115.936 89.4207 113.449 88.1825 115.04C86.9442 116.63 81.834 113.796 81.834 113.796C81.834 113.796 84.6655 106.542 85.3564 106.06C86.0473 105.578 86.8765 101.847 85.3564 100.121C83.8363 98.3947 83.7009 96.7365 83.7009 96.7365C83.7009 96.7365 89.2284 97.0779 88.1202 93.3523C87.8084 92.2724 87.2675 91.2724 86.5343 90.4205C85.8012 89.5685 84.8929 88.8846 83.8716 88.4154L84.1859 87.9304Z" fill="#E8E8F0"/>
<path opacity="0.1" d="M91.6428 100.156C91.6428 100.156 89.4995 104.196 86.7276 105.245C86.6382 105.277 86.5515 105.307 86.4567 105.334C83.5628 106.215 91.8595 101.408 91.6428 100.156Z" fill="black"/>
<path d="M61.6697 64.4142C61.6697 64.4142 62.7048 67.0397 63.5339 67.9366C64.363 68.8335 70.5083 77.8129 70.5083 77.8129L71.0285 78.8968L71.4756 79.8207L75.4126 79.4062L75.6836 77.8184L75.5318 77.6341C75.1362 77.1599 74.0578 75.8864 73.3344 75.331C72.4375 74.6428 70.6411 72.364 70.6411 72.364C70.6411 72.364 65.0485 66.5601 64.634 64.9723C64.2194 63.3845 58.6242 53.8632 57.3832 55.5106C56.1422 57.158 61.6697 64.4142 61.6697 64.4142Z" fill="#FBBEBE"/>
<g opacity="0.1">
<path opacity="0.1" d="M73.0931 107.125C72.6205 107.084 72.1449 107.153 71.7031 107.326C70.7277 107.8 70.5434 109.081 70.0015 110.022C69.3675 111.122 68.159 111.802 66.9153 112.054C66.6681 112.102 66.4185 112.136 66.1675 112.157C66.9596 112.234 67.7586 112.199 68.5411 112.054C69.7847 111.802 70.9932 111.122 71.6272 110.022C72.1691 109.081 72.3534 107.8 73.3288 107.326C73.5849 107.21 73.861 107.146 74.1417 107.136L73.0931 107.125Z" fill="black"/>
<path opacity="0.1" d="M82.7175 86.3399C82.7175 84.1858 84.1183 82.3297 85.2726 80.5116C86.4269 78.6935 87.3969 76.3985 86.4838 74.4476C85.7034 72.7813 80.9996 70.5459 78.2847 70.9875C80.9427 71.3316 84.2186 73.082 84.858 74.4476C85.7712 76.3985 84.8011 78.6935 83.6469 80.5116C82.4926 82.3297 81.0863 84.1858 81.0918 86.3399C81.0918 89.1199 80.9048 91.2171 80.1407 93.9022C79.9212 94.6745 82.0374 95.8423 81.7122 96.5739C80.6122 99.0125 81.127 101.825 80.9509 104.491C80.9472 105.012 80.82 105.525 80.5796 105.987C80.0377 106.878 78.9268 107.109 77.8457 107.157H78.7913C80.054 107.157 81.5524 107.06 82.2054 105.979C82.4457 105.517 82.5729 105.004 82.5766 104.483C82.7527 101.817 82.2379 99.0016 83.338 96.5657C83.6685 95.8342 81.547 94.6691 81.7664 93.8941C82.5305 91.2279 82.7229 89.1199 82.7175 86.3399Z" fill="black"/>
</g>
<path opacity="0.1" d="M71.0283 78.8913L71.4754 79.8153L75.4124 79.4007L75.6833 77.8129L75.5316 77.6287C75.1116 77.8346 71.9658 79.3492 71.0283 78.8913Z" fill="black"/>
<path opacity="0.1" d="M85.5653 89.2771C85.5653 89.2771 84.598 87.7598 84.0452 88.1716C83.4925 88.5835 83.2784 86.9279 82.9614 87.2043C82.6444 87.4807 81.7204 88.2502 81.3357 87.1745C81.0349 86.3183 77.7618 80.9019 76.4341 78.7234C76.0927 78.1598 75.8786 77.813 75.8786 77.813C75.8786 77.813 72.1503 79.6772 71.2534 79.0567V80.3681L72.0121 80.4385L76.0764 88.0253C76.0764 88.0253 77.3553 90.0602 77.2686 90.7701C77.1819 91.48 78.9079 94.5879 79.1843 94.7938C79.4607 94.9997 82.4358 98.4544 82.4358 98.4544C82.4358 98.4544 83.9558 105.914 82.6417 107.987C81.3275 110.059 79.0515 111.577 79.0515 111.577C79.0515 111.577 78.366 113.579 78.4663 113.788C78.5665 113.996 77.6696 114.893 78.0842 115.17C78.4988 115.446 79.0515 117.378 79.0515 117.378C79.0515 117.378 80.9861 114.27 82.032 113.788C83.0779 113.305 84.4164 106.949 84.4164 106.949C84.4164 106.949 84.7985 103.204 84.8283 100.787C84.8581 98.3704 84.7362 89.2771 85.5653 89.2771Z" fill="black"/>
<path d="M85.3563 89.2771C85.3563 89.2771 84.3917 87.7598 83.839 88.1716C83.2862 88.5835 83.0694 86.9279 82.7551 87.2043C82.4408 87.4807 81.5169 88.2502 81.1294 87.1745C80.8259 86.3183 77.5528 80.9019 76.2278 78.7234L75.6724 77.813C75.6724 77.813 71.944 79.6772 71.0444 79.0567V80.3681L71.8058 80.4385L75.8702 88.0253C75.8702 88.0253 77.1518 90.0602 77.0624 90.7701C76.973 91.48 78.6881 94.5878 78.978 94.7938C79.2679 94.9997 82.2295 98.4544 82.2295 98.4544C82.2295 98.4544 83.7496 105.914 82.4381 107.987C81.7453 109.028 80.9026 109.961 79.9372 110.756C79.1263 111.425 78.5555 112.34 78.3115 113.362C78.2644 113.502 78.2478 113.65 78.2627 113.796C78.363 114.002 77.4661 114.901 77.8806 115.178C78.2952 115.454 78.8534 117.394 78.8534 117.394C78.8534 117.394 80.788 114.286 81.8339 113.804C82.8798 113.322 84.221 106.965 84.221 106.965C84.221 106.965 84.6003 103.22 84.6329 100.804C84.6654 98.3866 84.5434 89.2771 85.3563 89.2771Z" fill="#F86D70"/>
<path opacity="0.1" d="M75.8945 120.703C75.8945 120.703 78.7964 121.245 79.9588 122.082C81.1212 122.919 75.5396 120.77 75.5396 120.77L75.8945 120.703Z" fill="black"/>
<path opacity="0.1" d="M82.8721 128.056C82.8721 128.056 85.8986 130.579 85.3567 132.857C84.8148 135.136 83.4167 140.87 83.4167 140.87L82.8721 128.056Z" fill="black"/>
<path opacity="0.1" d="M56.4022 123.206C56.4022 123.206 52.1374 123.672 52.4138 124.225C52.6901 124.778 56.4022 123.715 56.4022 123.715V123.206Z" fill="black"/>
<path opacity="0.1" d="M89.1498 144.184C89.1498 144.184 89.4207 144.528 87.8384 144.184C86.256 143.839 87.4238 142.777 87.4238 142.777L89.1498 144.184Z" fill="black"/>
<path opacity="0.1" d="M88.6081 148.95C88.6081 148.95 86.4404 149.294 85.278 148.95C84.1156 148.605 88.6081 148.95 88.6081 148.95Z" fill="black"/>
<path opacity="0.1" d="M84.1479 167.597C84.1479 167.597 83.7685 167.182 81.8691 167.941C79.9697 168.7 79.211 168.735 78.6583 168.483C78.1055 168.231 84.1479 167.597 84.1479 167.597Z" fill="black"/>
<path opacity="0.1" d="M86.2563 122.618L83.563 126.365C83.563 126.365 85.0126 123.084 86.2563 122.618Z" fill="black"/>
<path opacity="0.1" d="M81.0213 88.1716C81.0213 88.1716 80.9048 89.4153 79.168 89.9003C77.4312 90.3853 77.1006 90.7782 77.1006 90.7782" fill="black"/>
<path opacity="0.1" d="M76.5071 79.157C76.5071 79.157 74.2148 80.7827 71.8223 80.4386Z" fill="black"/>
<path opacity="0.1" d="M78.252 113.967C78.252 113.967 78.9212 114.387 80.528 112.55Z" fill="black"/>
<path opacity="0.1" d="M94.9404 94.4876C95.0054 94.1516 94.7724 93.84 94.5529 93.5772L94.1031 93.0353C94.0152 92.9244 93.9163 92.8227 93.8078 92.7318C93.5368 92.5232 93.19 92.4609 92.9082 92.2739" fill="black"/>
<path opacity="0.6" d="M240.422 0.0297056C240.422 0.0297056 217.61 -1.34675 220.293 14.6396C220.293 14.6396 219.751 17.4657 222.319 18.7473C222.319 18.7473 222.36 17.5632 224.66 17.967C225.479 18.1027 226.311 18.1427 227.14 18.0862C228.259 18.0089 229.322 17.5695 230.169 16.8344V16.8344C230.169 16.8344 236.582 14.1844 239.075 3.70387C239.075 3.70387 240.92 1.417 240.847 0.829026L236.997 2.47372C236.997 2.47372 238.314 5.25102 237.268 7.55956C237.268 7.55956 237.143 2.57398 236.404 2.68236C236.255 2.70675 234.404 3.64426 234.404 3.64426C234.404 3.64426 236.666 8.48082 234.959 11.9978C234.959 11.9978 235.607 6.03679 233.697 3.99379L230.987 5.57617C230.987 5.57617 233.632 10.5726 231.838 14.6505C231.838 14.6505 232.299 8.39682 230.415 5.96093L227.961 7.87658C227.961 7.87658 230.445 12.8026 228.931 16.1841C228.931 16.1841 228.733 8.90351 227.43 8.35347C227.43 8.35347 225.281 10.2502 224.953 11.0251C224.953 11.0251 226.655 14.6017 225.598 16.4876C225.598 16.4876 224.95 11.6374 224.419 11.6104C224.419 11.6104 222.279 14.8239 222.056 17.0295C222.056 17.0295 222.149 13.7536 223.902 11.3069C223.902 11.3069 221.832 11.6618 220.623 13.0031C220.623 13.0031 220.956 10.7325 224.43 10.5347C224.43 10.5347 226.199 8.09606 226.671 7.94703C226.671 7.94703 223.219 7.65982 221.124 8.58648C221.124 8.58648 222.967 6.44323 227.305 7.41867L229.73 5.43798C229.73 5.43798 225.183 4.81749 223.254 5.50301C223.254 5.50301 225.473 3.60632 230.383 4.98819L233.022 3.41123C233.022 3.41123 229.145 2.57669 226.836 2.86932C226.836 2.86932 229.275 1.55519 233.797 2.98041L235.694 2.13232C235.694 2.13232 232.854 1.57415 232.022 1.48474C231.19 1.39532 231.147 1.16772 231.147 1.16772C232.946 0.867733 234.793 1.07316 236.482 1.76111C236.482 1.76111 240.492 0.281694 240.422 0.0297056Z" fill="#40CA6A"/>
<path opacity="0.6" d="M36.324 63.1024C36.324 63.1024 38.9891 40.4051 22.8765 42.1786C22.8765 42.1786 20.0857 41.4777 18.6607 43.9697C18.6607 43.9697 19.8406 44.0773 19.3074 46.3511C19.1255 47.1611 19.0385 47.9896 19.048 48.8197C19.0619 49.9412 19.4404 51.0277 20.1264 51.9149V51.9149C20.1264 51.9149 22.4092 58.4681 32.7319 61.55C32.7319 61.55 34.9107 63.5217 35.5019 63.4819L34.0777 59.5447C34.0777 59.5447 31.2303 60.7023 28.9847 59.5274C28.9847 59.5274 33.9693 59.6851 33.903 58.9405C33.8871 58.7903 33.0558 56.8896 33.0558 56.8896C33.0558 56.8896 28.0989 58.8747 24.6842 56.9714C24.6842 56.9714 30.599 57.9553 32.7468 56.1637L31.3203 53.369C31.3203 53.369 26.1822 55.7265 22.2124 53.7049C22.2124 53.7049 28.43 54.5187 30.9685 52.7764L29.1948 50.2171C29.1948 50.2171 24.1362 52.419 20.8458 50.7155C20.8458 50.7155 28.1259 50.93 28.7488 49.6599C28.7488 49.6599 26.9767 47.4073 26.2216 47.0361C26.2216 47.0361 22.5544 48.5326 20.7314 47.3709C20.7314 47.3709 25.6104 46.9988 25.6675 46.4701C25.6675 46.4701 22.5802 44.1511 20.3907 43.8045C20.3907 43.8045 23.6561 44.0818 25.9997 45.9706C25.9997 45.9706 25.7625 43.8837 24.4918 42.6013C24.4918 42.6013 26.7399 43.0625 26.7408 46.5418C26.7408 46.5418 29.0754 48.4463 29.1975 48.9254C29.1975 48.9254 29.6796 45.4952 28.8729 43.3517C28.8729 43.3517 30.9085 45.3125 29.6891 49.5883L31.5294 52.1216C31.5294 52.1216 32.4062 47.6173 31.8309 45.6524C31.8309 45.6524 33.599 47.9753 31.9415 52.799L33.3666 55.5231C33.3666 55.5231 34.4192 51.6992 34.2577 49.3778C34.2577 49.3778 35.4317 51.8868 33.7529 56.3212L34.4923 58.2628C34.4923 58.2628 35.2103 55.4593 35.3466 54.6339C35.483 53.8084 35.7126 53.778 35.7126 53.778C35.9104 55.5912 35.6007 57.4235 34.8183 59.071C34.8183 59.071 36.0684 63.1585 36.324 63.1024Z" fill="#40CA6A"/>
<path opacity="0.6" d="M212.285 4.09675C212.285 4.09675 201.989 3.47355 203.195 10.6972C203.195 10.6972 202.954 11.9761 204.108 12.556C204.108 12.556 204.127 12.0141 205.167 12.201C205.537 12.2632 205.913 12.2814 206.286 12.2552C206.792 12.2209 207.273 12.022 207.655 11.6889V11.6889C207.655 11.6889 210.554 10.494 211.681 5.75771C211.681 5.75771 212.513 4.72265 212.481 4.45712L210.741 5.19953C210.741 5.19953 211.337 6.45677 210.868 7.49995C210.868 7.49995 210.811 5.2456 210.478 5.29979C210.41 5.29979 209.573 5.73332 209.573 5.73332C209.573 5.73332 210.597 7.91993 209.825 9.51044C209.825 9.51044 210.118 6.81714 209.253 5.89318L208.029 6.60851C208.029 6.60851 209.226 8.86557 208.413 10.7081C208.413 10.7081 208.622 7.882 207.771 6.78192L206.663 7.6571C206.663 7.6571 207.785 9.88436 207.102 11.4098C207.102 11.4098 207.013 8.12044 206.422 7.87387C206.422 7.87387 205.452 8.73009 205.303 9.08233C205.303 9.08233 206.072 10.7081 205.596 11.548C205.596 11.548 205.303 9.356 205.054 9.34787C205.054 9.34787 204.089 10.8002 203.986 11.7865C204.034 10.866 204.322 9.97409 204.821 9.19884C204.262 9.30458 203.747 9.5711 203.338 9.96565C203.338 9.96565 203.49 8.94143 205.059 8.84931C205.059 8.84931 205.872 7.74923 206.072 7.68149C206.072 7.68149 204.512 7.55143 203.566 7.97141C203.566 7.97141 204.398 7.00139 206.36 7.4295L207.443 6.53535C207.443 6.53535 205.39 6.26439 204.517 6.56515C204.517 6.56515 205.52 5.70893 207.739 6.33213L208.931 5.61952C208.931 5.61952 207.181 5.24018 206.135 5.37837C206.135 5.37837 207.238 4.78227 209.281 5.42714L210.134 5.04509C210.134 5.04509 208.85 4.79039 208.473 4.75246C208.096 4.71453 208.077 4.60885 208.077 4.60885C208.891 4.47354 209.726 4.56736 210.489 4.87981C210.489 4.87981 212.318 4.21055 212.285 4.09675Z" fill="#40CA6A"/>
<path opacity="0.6" d="M66.1016 42.337C66.1016 42.337 72.0348 33.8991 65.2527 31.1351C65.2527 31.1351 64.2906 30.2587 63.1913 30.9371C63.1913 30.9371 63.6427 31.2376 62.9375 32.0252C62.6907 32.3071 62.4781 32.6174 62.3042 32.9494C62.0681 33.3979 61.9853 33.9113 62.0683 34.4113V34.4113C62.0683 34.4113 61.5642 37.5064 65.0047 40.9511C65.0047 40.9511 65.4493 42.2024 65.6924 42.314L65.9732 40.4436C65.9732 40.4436 64.5901 40.2914 63.9481 39.345C63.9481 39.345 65.897 40.4794 66.0257 40.1673C66.0613 40.1096 66.1316 39.1694 66.1316 39.1694C66.1316 39.1694 63.7327 38.8939 62.784 37.402C62.784 37.402 64.9232 39.0643 66.1632 38.8134L66.1969 37.3954C66.1969 37.3954 63.6472 37.2306 62.5052 35.5718C62.5052 35.5718 64.8015 37.2323 66.1844 37.0853L66.0209 35.6827C66.0209 35.6827 63.5362 35.4689 62.5959 34.0872C62.5959 34.0872 65.443 35.7371 65.9629 35.3637C65.9629 35.3637 65.743 34.0886 65.5213 33.777C65.5213 33.777 63.7336 33.579 63.2688 32.7323C63.2688 32.7323 65.2884 33.6334 65.4261 33.4254C65.4261 33.4254 64.6959 31.8422 63.9103 31.237C64.6685 31.7612 65.2769 32.474 65.6752 33.3053C65.8781 32.7746 65.9215 32.1962 65.8002 31.6412C65.8002 31.6412 66.5924 32.3078 65.8477 33.6916C65.8477 33.6916 66.3576 34.9608 66.31 35.1671C66.31 35.1671 67.2397 33.9067 67.3784 32.8814C67.3784 32.8814 67.7676 34.0985 66.3739 35.5438L66.5663 36.9356C66.5663 36.9356 67.8747 35.3294 68.0764 34.4289C68.0764 34.4289 68.2793 35.7316 66.5843 37.2937L66.5654 38.6825C66.5654 38.6825 67.8068 37.3915 68.2379 36.4286C68.2379 36.4286 68.1667 37.6802 66.5458 39.081L66.4231 40.008C66.4231 40.008 67.3139 39.0483 67.5438 38.7476C67.7737 38.4469 67.8736 38.4862 67.8736 38.4862C67.562 39.2496 67.044 39.9112 66.3776 40.3969C66.3776 40.3969 65.9876 42.305 66.1016 42.337Z" fill="#40CA6A"/>
<path d="M248.253 176.327C254.27 176.327 259.148 175.502 259.148 174.485C259.148 173.467 254.27 172.642 248.253 172.642C242.235 172.642 237.357 173.467 237.357 174.485C237.357 175.502 242.235 176.327 248.253 176.327Z" fill="#40CA6A"/>
<path d="M252.759 171.472C253.256 171.066 253.618 170.519 253.796 169.903C253.932 169.282 253.666 168.548 253.07 168.307C252.404 168.052 251.691 168.515 251.152 168.981C250.613 169.448 249.992 169.981 249.288 169.881C249.651 169.551 249.922 169.133 250.076 168.667C250.23 168.202 250.261 167.704 250.166 167.223C250.135 167.024 250.05 166.836 249.922 166.681C249.551 166.285 248.881 166.453 248.437 166.765C247.028 167.757 246.635 169.672 246.627 171.393C246.486 170.772 246.605 170.125 246.603 169.496C246.6 168.868 246.424 168.141 245.884 167.808C245.552 167.629 245.178 167.541 244.801 167.554C244.169 167.529 243.462 167.594 243.031 168.057C242.489 168.632 242.633 169.597 243.099 170.225C243.565 170.854 244.278 171.257 244.933 171.694C245.458 172.006 245.905 172.433 246.242 172.943C246.283 173.014 246.315 173.089 246.34 173.168H250.312C251.2 172.715 252.023 172.145 252.759 171.472V171.472Z" fill="#40CA6A"/>
<path fill-rule="evenodd" clip-rule="evenodd" d="M180.909 94.4186L147.852 122.306L130.424 104.735L136.196 99.0106L148.343 111.258L175.668 88.2056L180.909 94.4186Z" fill="black" fill-opacity="0.05"/>
<path fill-rule="evenodd" clip-rule="evenodd" d="M148.001 154.109C178.678 154.109 203.547 129.24 203.547 98.5627C203.547 80.9086 195.311 65.1781 182.472 55.0039C198.367 64.7767 208.966 82.3286 208.966 102.356C208.966 133.033 184.097 157.902 153.42 157.902C140.397 157.902 128.421 153.42 118.949 145.915C127.401 151.112 137.351 154.109 148.001 154.109Z" fill="#33BB59"/>
<path fill-rule="evenodd" clip-rule="evenodd" d="M180.097 91.1672L147.04 119.055L129.612 101.483L135.383 95.7592L147.53 108.006L174.855 84.9541L180.097 91.1672Z" fill="white"/>
<defs>
<linearGradient id="paint0_linear" x1="219.076" y1="136.814" x2="219.076" y2="27.8082" gradientUnits="userSpaceOnUse">
<stop stop-color="#808080" stop-opacity="0.25"/>
<stop offset="0.54" stop-color="#808080" stop-opacity="0.12"/>
<stop offset="1" stop-color="#808080" stop-opacity="0.1"/>
</linearGradient>
<linearGradient id="paint1_linear" x1="10798" y1="67897.4" x2="24180.9" y2="67897.4" gradientUnits="userSpaceOnUse">
<stop stop-color="#808080" stop-opacity="0.25"/>
<stop offset="0.54" stop-color="#808080" stop-opacity="0.12"/>
<stop offset="1" stop-color="#808080" stop-opacity="0.1"/>
</linearGradient>
</defs>
</svg>
